<?xml version="1.0" encoding="UTF-8"?>
<svg version="1.1" xmlns="http://www.w3.org/2000/svg" width="512" height="512">
<path d="M0 0 C1.01951569 -0.00453111 2.03903138 -0.00906223 3.08944148 -0.01373065 C6.51016896 -0.02640419 9.93073783 -0.02475235 13.35148621 -0.02310181 C15.80226853 -0.02908521 18.25304896 -0.03589032 20.7038269 -0.04345703 C26.67291351 -0.05930581 32.64193761 -0.06556626 38.61103944 -0.06668179 C43.46402313 -0.06763263 48.3169938 -0.07174473 53.16997337 -0.07808304 C66.93429604 -0.0956938 80.69858753 -0.10492221 94.46292154 -0.10342209 C95.20474163 -0.10334218 95.94656172 -0.10326227 96.71086121 -0.10317993 C97.45358891 -0.10309817 98.19631661 -0.10301641 98.96155121 -0.10293217 C110.99655487 -0.10211939 123.03143335 -0.12125534 135.0664008 -0.14945666 C147.42894231 -0.17819658 159.79142279 -0.19199634 172.15399855 -0.19026911 C179.09258574 -0.18960558 186.0310417 -0.19508183 192.96959877 -0.21662521 C199.49574503 -0.2367585 206.02166163 -0.23615198 212.54783821 -0.22159195 C214.94235895 -0.2194991 217.33689691 -0.22423296 219.73138809 -0.23631287 C223.00199724 -0.25174324 226.2716479 -0.2424708 229.54223633 -0.22705078 C230.48826007 -0.23733791 231.43428382 -0.24762503 232.40897495 -0.25822389 C239.51970207 -0.18421459 244.81208105 1.50748681 250.20378113 6.23226929 C250.74260925 6.88324585 251.28143738 7.53422241 251.83659363 8.20492554 C252.3908905 8.85332397 252.94518738 9.50172241 253.51628113 10.16976929 C256.87060177 15.03806709 257.25064104 19.50964378 257.21886253 25.29418659 C257.22236861 26.10122492 257.22587468 26.90826324 257.229487 27.73975727 C257.23882123 30.4551283 257.23387247 33.17028582 257.22901917 35.88566589 C257.2327544 37.84768638 257.23735542 39.80970539 257.24274981 41.77172202 C257.25501082 47.17214649 257.2547157 52.57250916 257.25236106 57.97294438 C257.25195368 63.79379621 257.26298451 69.61462803 257.2724762 75.43547058 C257.28910408 86.84288838 257.29458655 98.25028551 257.29570095 109.6577144 C257.29665056 118.92812554 257.3007565 128.19852985 257.3071022 137.46893883 C257.30889121 140.13668988 257.3106769 142.80444093 257.31245196 145.47219199 C257.3131151 146.46698787 257.3131151 146.46698787 257.31379164 147.48188063 C257.32610143 166.13847476 257.33399263 184.79506656 257.33310509 203.45166492 C257.33305835 204.50692941 257.33305835 204.50692941 257.33301067 205.58351237 C257.33284445 209.14925199 257.33264637 212.71499162 257.33244126 216.28073124 C257.33240137 216.98890924 257.33236147 217.69708724 257.33232038 218.42672519 C257.3322395 219.85883398 257.33215591 221.29094278 257.33206959 222.72305157 C257.33084403 245.00520297 257.34585756 267.28729351 257.37321472 289.56942749 C257.40393248 314.59908584 257.4211474 339.6287042 257.41928828 364.65838259 C257.41854695 377.91266618 257.4241471 391.16688404 257.44564438 404.42115211 C257.46382883 415.70539894 257.468226 426.98954601 257.45462553 438.27380113 C257.44808214 444.03272957 257.44802823 449.7914665 257.46533203 455.55037689 C257.481007 460.8213349 257.47825615 466.09194863 257.46076377 471.36289795 C257.45768157 473.27068592 257.46137191 475.17849922 257.47248392 477.08625732 C257.48658646 479.6789692 257.47603374 482.27047037 257.45937157 484.86314106 C257.47427611 485.97497569 257.47427611 485.97497569 257.48948175 487.10927162 C257.40208625 493.53867683 255.23739487 498.67038794 250.99674988 503.50961304 C250.34577332 504.04844116 249.69479675 504.58726929 249.02409363 505.14242554 C248.37569519 505.69672241 247.72729675 506.25101929 247.05924988 506.82211304 C242.19095208 510.17643368 237.71937538 510.55647295 231.93483257 510.52469444 C231.12779425 510.52820052 230.32075593 510.53170659 229.4892619 510.53531891 C226.77389086 510.54465314 224.05873335 510.53970438 221.34335327 510.53485107 C219.38133278 510.53858631 217.41931378 510.54318733 215.45729715 510.54858172 C210.05687268 510.56084273 204.65651001 510.5605476 199.25607479 510.55819297 C193.43522295 510.55778559 187.61439114 510.56881642 181.79354858 510.57830811 C170.38613079 510.59493599 158.97873366 510.60041846 147.57130476 510.60153286 C138.30089362 510.60248247 129.03048932 510.60658841 119.76008034 510.61293411 C117.09232929 510.61472312 114.42457824 510.61650881 111.75682718 510.61828387 C111.09362992 510.61872596 110.43043267 510.61916806 109.74713854 510.61962355 C91.09054441 510.63193334 72.43395261 510.63982454 53.77735424 510.638937 C53.07384458 510.63890584 52.37033493 510.63887468 51.6455068 510.63884258 C48.07976717 510.63867636 44.51402755 510.63847828 40.94828793 510.63827316 C39.88602092 510.63821333 39.88602092 510.63821333 38.80229398 510.63815228 C37.37018518 510.63807141 35.93807639 510.63798781 34.5059676 510.6379015 C12.2238162 510.63667594 -10.05827434 510.65168947 -32.34040833 510.67904663 C-57.37006668 510.70976439 -82.39968504 510.72697931 -107.42936343 510.72512019 C-120.68364702 510.72437886 -133.93786488 510.72997901 -147.19213295 510.75147629 C-158.47637978 510.76966074 -169.76052685 510.77405791 -181.04478196 510.76045744 C-186.80371041 510.75391405 -192.56244733 510.75386014 -198.32135773 510.77116394 C-203.59231573 510.78683891 -208.86292946 510.78408806 -214.13387879 510.76659568 C-216.04166675 510.76351348 -217.94948006 510.76720382 -219.85723815 510.77831583 C-222.44995003 510.79241837 -225.04145121 510.78186565 -227.63412189 510.76520348 C-228.74595652 510.78010802 -228.74595652 510.78010802 -229.88025245 510.79531366 C-236.30965767 510.70791816 -241.44136877 508.54322678 -246.28059387 504.30258179 C-246.819422 503.65160522 -247.35825012 503.00062866 -247.91340637 502.32992554 C-248.46770325 501.6815271 -249.02200012 501.03312866 -249.59309387 500.36508179 C-252.3563763 496.3545881 -253.28819546 492.7956361 -253.29567528 487.95808697 C-253.30212417 486.90107985 -253.30857306 485.84407274 -253.31521738 484.7550351 C-253.31212017 483.59998988 -253.30902297 482.44494466 -253.30583191 481.25489807 C-253.31036302 480.02303766 -253.31489413 478.79117725 -253.31956255 477.52198774 C-253.33003571 474.10538435 -253.33153191 470.68899141 -253.3291738 467.27238691 C-253.32876568 463.58651876 -253.33980437 459.90068201 -253.34928894 456.21482849 C-253.36590095 448.99445226 -253.37139858 441.77410869 -253.3725137 434.55371495 C-253.37346409 428.68433239 -253.37757395 422.81496059 -253.38391495 416.94558144 C-253.40152803 400.30370844 -253.41075373 383.66186123 -253.409254 367.01997884 C-253.40917409 366.12283498 -253.40909417 365.22569112 -253.40901184 364.30136108 C-253.40893008 363.40312141 -253.40884832 362.50488174 -253.40876408 361.57942269 C-253.40795119 347.02248304 -253.42708929 332.46564687 -253.45528857 317.90873715 C-253.48401692 302.9607288 -253.49782889 288.01277093 -253.49610102 273.06473428 C-253.49543709 264.6729812 -253.50093052 256.28133659 -253.52245712 247.88960838 C-253.54066829 240.7445553 -253.54501685 233.59965986 -253.53143828 226.45459362 C-253.52490819 222.81000285 -253.52479251 219.1657145 -253.54214478 215.5211525 C-253.56077438 211.56759628 -253.54832186 207.61448165 -253.53288269 203.66090393 C-253.54316982 202.51255088 -253.55345694 201.36419782 -253.5640558 200.18104619 C-253.49694881 192.41188609 -252.33598961 187.03047281 -247.07356262 181.02523804 C-246.42258606 180.48640991 -245.7716095 179.94758179 -245.10090637 179.39242554 C-244.45250793 178.83812866 -243.8041095 178.28383179 -243.13606262 177.71273804 C-238.11075553 174.25023594 -233.46669609 173.98341222 -227.50268555 174.0269165 C-226.2160837 174.02435323 -226.2160837 174.02435323 -224.90348989 174.02173817 C-222.03065233 174.01844508 -219.15804857 174.02944404 -216.28523254 174.04037476 C-214.22540797 174.04093891 -212.165583 174.04062223 -210.10575867 174.03948975 C-204.51322273 174.03891539 -198.9207724 174.05068315 -193.32825637 174.06463766 C-187.48394818 174.07713119 -181.63963808 174.07831443 -175.7953186 174.08068848 C-164.72797639 174.08690729 -153.66067363 174.10332356 -142.5933488 174.12338746 C-129.99371992 174.14573395 -117.39408916 174.15673675 -104.7944454 174.16677833 C-78.87574383 174.18768942 -52.95707731 174.22287322 -27.03840637 174.26742554 C-27.04209354 173.46566391 -27.04578072 172.66390228 -27.04957962 171.83784485 C-27.13797494 152.31565196 -27.20413754 132.7934991 -27.24565506 113.27114868 C-27.26626707 103.83021857 -27.29436162 94.38942216 -27.34016418 84.94857788 C-27.38007366 76.71848681 -27.40584909 68.4884926 -27.41476035 60.25830746 C-27.41996815 55.90175827 -27.43217987 51.54548614 -27.4613266 47.18902588 C-27.48856075 43.08501902 -27.49683531 38.98140226 -27.4908371 34.87731361 C-27.49193377 33.37452382 -27.49984013 31.87172042 -27.51522827 30.36900902 C-27.60439155 21.20936528 -27.38197686 14.22410439 -21.07356262 7.02523804 C-20.09709778 6.21699585 -20.09709778 6.21699585 -19.10090637 5.39242554 C-18.45250793 4.83812866 -17.8041095 4.28383179 -17.13606262 3.71273804 C-11.59328493 -0.10630804 -6.51556208 -0.02118158 0 0 Z M-9.03840637 19.26742554 C-11.22773343 22.96040636 -11.28599793 26.33146781 -11.27891541 30.5632782 C-11.28166473 31.83227463 -11.28441406 33.10127106 -11.2872467 34.40872192 C-11.28016934 35.80734348 -11.27289973 37.20596408 -11.26545715 38.60458374 C-11.26489277 40.08313489 -11.26521013 41.5616866 -11.26634216 43.04023743 C-11.26691562 47.04812722 -11.2551625 51.05589713 -11.24119425 55.06375909 C-11.22868568 59.2544597 -11.22751629 63.44516311 -11.22514343 67.63587952 C-11.21892904 75.56891616 -11.20251876 83.50189764 -11.18244445 91.43491 C-11.1600842 100.46749446 -11.1490917 109.50008157 -11.13905358 118.53268683 C-11.11815251 137.11096434 -11.08297731 155.6891905 -11.03840637 174.26742554 C-9.91982239 174.28144409 -9.91982239 174.28144409 -8.77864075 174.29574585 C-5.36458488 174.34978584 -1.95184983 174.43336858 1.46159363 174.51742554 C2.6346405 174.53160522 3.80768738 174.54578491 5.01628113 174.56039429 C12.98674762 174.7842838 18.81553972 175.61761746 24.98503113 181.04867554 C25.43104675 181.61586304 25.87706238 182.18305054 26.33659363 182.76742554 C26.798078 183.33461304 27.25956238 183.90180054 27.73503113 184.48617554 C28.96159363 186.26742554 28.96159363 186.26742554 30.96159363 190.26742554 C100.26159363 190.26742554 169.56159363 190.26742554 240.96159363 190.26742554 C241.02346863 163.00117554 241.08534363 135.73492554 241.14909363 107.64242554 C241.17640564 99.03068237 241.20371765 90.41893921 241.2318573 81.54623413 C241.24189014 73.83171262 241.24189014 73.83171262 241.2479248 66.1171875 C241.25072156 62.67905885 241.26197113 59.24106895 241.27832031 55.80297852 C241.29890085 51.41695585 241.30506651 47.03113488 241.30081046 42.64506841 C241.3017004 41.03572119 241.30764749 39.4263669 241.31923902 37.81706119 C241.3341812 35.64143791 241.3305572 33.46659616 241.32235718 31.29095459 C241.32512256 30.07234426 241.32788794 28.85373394 241.33073711 27.59819603 C240.90926619 23.79527665 240.08277386 21.45050064 237.96159363 18.26742554 C233.62547433 15.45185633 228.44076154 15.98572565 223.44122314 16.00672913 C222.47746606 16.00290358 221.51370897 15.99907803 220.52074713 15.99513656 C217.28881573 15.98481127 214.05706215 15.98879785 210.82511902 15.99276733 C208.50902136 15.98842062 206.19292513 15.98323761 203.87683105 15.97727966 C197.58352038 15.96387448 191.2902697 15.96331266 184.99694753 15.96584296 C179.74575867 15.96691158 174.494582 15.96203213 169.24339575 15.95723754 C156.14842078 15.94550232 143.05348005 15.94637046 129.95850288 15.95279435 C118.58821991 15.9579639 107.2180226 15.946707 95.84775657 15.92769613 C84.1700118 15.90832098 72.49231124 15.90035262 60.81455034 15.90381938 C54.25946497 15.90563433 47.70445806 15.90297486 41.14938545 15.88910484 C34.98603663 15.87655194 28.82285958 15.87844666 22.65951347 15.89151573 C20.39638588 15.89388654 18.13324629 15.89112886 15.87013245 15.88289261 C12.78287026 15.8724664 9.69618883 15.88049294 6.60894775 15.89320374 C5.7115716 15.88582945 4.81419545 15.87845517 3.88962609 15.87085742 C-1.10920166 15.91421083 -4.82173147 16.27615699 -9.03840637 19.26742554 Z M-235.03840637 193.26742554 C-241.35690079 209.06366157 -237.03840637 227.25435866 -237.03840637 244.26742554 C-153.54840637 244.26742554 -70.05840637 244.26742554 15.96159363 244.26742554 C18.34388963 217.35093977 18.34388963 217.35093977 12.96159363 192.26742554 C8.61919237 189.44457633 3.4112097 189.98578091 -1.59674072 190.00672913 C-2.56458136 190.00290358 -3.532422 189.99907803 -4.52959114 189.99513656 C-7.77534183 189.98481095 -11.02091547 189.98879791 -14.26667786 189.99276733 C-16.5926276 189.98842064 -18.91857592 189.98323763 -21.24452209 189.97727966 C-27.56469135 189.9638743 -33.88480086 189.96331268 -40.20498157 189.96584296 C-46.14542859 189.96704671 -52.08586551 189.96083736 -58.0263095 189.9554095 C-70.51015006 189.94453461 -82.9939636 189.94669626 -95.47780568 189.95279435 C-106.89658746 189.9579639 -118.31528393 189.94670699 -129.73404884 189.92769613 C-141.46151288 189.90832113 -153.18893655 189.90006111 -164.9164167 189.90381938 C-171.49944763 189.90563435 -178.08240041 189.90297465 -184.66541862 189.88910484 C-190.85503203 189.87655216 -197.04447438 189.87844645 -203.23408508 189.89151573 C-205.50688802 189.89388659 -207.77970289 189.89112869 -210.05249214 189.88289261 C-213.15289068 189.8724668 -216.25271087 189.88049262 -219.35308838 189.89320374 C-220.25435548 189.88582945 -221.15562258 189.87845517 -222.0842008 189.87085742 C-227.09161167 189.91410398 -230.81540799 190.2688501 -235.03840637 193.26742554 Z M31.96159363 206.26742554 C31.96159363 233.65742554 31.96159363 261.04742554 31.96159363 289.26742554 C40.89221863 289.29320679 49.82284363 289.31898804 59.02409363 289.34555054 C65.40423533 289.37392048 71.78432678 289.40478481 78.16443443 289.43924904 C86.42706246 289.48355035 94.68958079 289.52198672 102.95231628 289.53842163 C109.49491948 289.55145397 116.03729265 289.57845868 122.57976627 289.6220386 C126.04199952 289.64461825 129.50394942 289.66033835 132.96626282 289.65930939 C136.83733834 289.65842133 140.70783744 289.68873643 144.57878113 289.7215271 C145.71886124 289.71649673 146.85894135 289.71146637 148.03356934 289.70628357 C155.21060972 289.80023911 161.15705225 290.63550606 166.51454163 295.74991226 C170.50428259 300.30289668 171.08695525 303.69364956 171.10876465 309.57937622 C171.11244134 310.22220181 171.11611802 310.86502739 171.11990613 311.52733254 C171.13093476 313.68517109 171.1347854 315.84296147 171.13859558 318.00082397 C171.14486086 319.54654086 171.15150772 321.09225624 171.1585083 322.63796997 C171.17954355 327.7175695 171.18991021 332.79716931 171.19987488 337.87680054 C171.20392264 339.62594875 171.20803957 341.3750968 171.21222496 343.12424469 C171.23127549 351.34205451 171.24550679 359.55985536 171.25383693 367.77768302 C171.26360912 377.26135325 171.28992867 386.74479007 171.33033782 396.22837806 C171.36050519 403.5601241 171.3753064 410.89180326 171.37861794 418.22361016 C171.38096774 422.60186382 171.38991893 426.97986808 171.41507912 431.35805511 C171.4383758 435.47853286 171.44258679 439.59859728 171.43231773 443.71912384 C171.43182265 445.22877884 171.4381352 446.7384543 171.45187378 448.24804688 C171.57360676 462.42065612 171.57360676 462.42065612 166.96159363 468.26742554 C161.50082561 473.44815417 156.50517326 474.56420424 149.14201355 474.58627319 C148.37075134 474.59631882 147.59948914 474.60636444 146.80485535 474.61671448 C144.26726495 474.6474916 141.7297798 474.66456625 139.19206238 474.68148804 C137.42799986 474.7002041 135.66394625 474.71977784 133.89990234 474.74017334 C129.26561237 474.79145427 124.63129338 474.8311016 119.99687195 474.86831665 C115.26433662 474.90838162 110.53192155 474.9594626 105.79948425 475.00961304 C96.52026355 475.10632458 87.24099303 475.18972608 77.96159363 475.26742554 C77.96159363 481.53742554 77.96159363 487.80742554 77.96159363 494.26742554 C98.0674393 494.33687841 118.17325108 494.39041246 138.27919197 494.42286205 C147.61477365 494.43832957 156.95027942 494.4594169 166.28581238 494.4937439 C174.4228603 494.52364976 182.55985325 494.54300138 190.69695461 494.54969102 C195.00532072 494.55360127 199.31352955 494.56278849 203.62184525 494.58461571 C207.67819661 494.60499962 211.73432609 494.6112555 215.7907238 494.60674858 C217.27821878 494.60757293 218.76572128 494.61352733 220.25317192 494.62504196 C222.28728216 494.6400141 224.32151182 494.63458087 226.35566711 494.62818909 C227.49315966 494.63095447 228.6306522 494.63371984 229.80261421 494.63656902 C233.51240413 494.20306041 235.8445092 493.32464006 238.96159363 491.26742554 C240.67382705 487.855033 241.21108335 485.07218845 241.20768929 481.27932262 C241.21167138 480.29401662 241.21565348 479.30871062 241.21975625 478.29354686 C241.21393056 477.21864554 241.20810488 476.14374422 241.20210266 475.03627014 C241.20381151 473.88860336 241.20552036 472.74093657 241.20728099 471.558492 C241.21000487 468.3772873 241.20375736 465.19624572 241.19372487 462.01506031 C241.18508592 458.58294169 241.18801085 455.15083065 241.18952942 451.71870422 C241.19057799 445.77375678 241.18430432 439.82885325 241.17305374 433.88391685 C241.15679791 425.28854917 241.15159065 416.69320272 241.14907776 408.09782133 C241.14470079 394.15230953 241.13139162 380.20682112 241.11247253 366.26132202 C241.09411379 352.71477371 241.07998019 339.1682318 241.07145691 325.62167358 C241.07092091 324.77811272 241.07038492 323.93455186 241.06983268 323.06542856 C241.06567382 316.4682035 241.06175998 309.8709783 241.05792356 303.27375305 C241.03905706 270.93828907 240.99882025 238.60288366 240.96159363 206.26742554 C171.99159363 206.26742554 103.02159363 206.26742554 31.96159363 206.26742554 Z M-237.03840637 260.26742554 C-237.10028137 297.43367554 -237.16215637 334.59992554 -237.22590637 372.89242554 C-237.25321838 384.63659058 -237.2805304 396.38075562 -237.30867004 408.48080444 C-237.31870208 418.98951589 -237.31870208 418.98951589 -237.32473755 429.49822998 C-237.32753745 434.18634279 -237.33879958 438.87435413 -237.35513306 443.56243896 C-237.37568096 449.53915732 -237.38188527 455.51572773 -237.3776232 461.49247813 C-237.37851468 463.68795052 -237.38448089 465.88342798 -237.39605176 468.07887006 C-237.41094263 471.04145625 -237.40738799 474.0034654 -237.39916992 476.96606445 C-237.40790792 477.82769384 -237.41664591 478.68932323 -237.42564869 479.57706261 C-237.3888778 484.49888996 -236.96549986 488.10779227 -234.03840637 492.26742554 C-229.71881172 495.06555219 -224.60610256 494.54057824 -219.6295166 494.50793457 C-218.67786033 494.50964342 -217.72620406 494.51135227 -216.74570972 494.5131129 C-213.55503149 494.51640867 -210.36456329 494.50540254 -207.17390442 494.49447632 C-204.88748174 494.49391222 -202.6010587 494.49422873 -200.31463623 494.49536133 C-194.10435492 494.49593591 -187.89415063 494.48416447 -181.68388724 494.47021341 C-175.19495263 494.45772366 -168.70601631 494.45653694 -162.21707153 494.4541626 C-151.32473882 494.44864966 -140.43243458 494.43615128 -129.54011536 494.41830444 C-118.32169231 494.39994242 -107.10327696 494.38578749 -95.88484192 494.37728882 C-94.84733788 494.37650065 -94.84733788 494.37650065 -93.78887417 494.37569655 C-90.31892286 494.37308645 -86.8489715 494.37055904 -83.37902009 494.36807275 C-54.59879626 494.34734413 -25.81860334 494.31157101 2.96159363 494.26742554 C2.96159363 487.99742554 2.96159363 481.72742554 2.96159363 475.26742554 C0.61034363 475.25807983 -1.74090637 475.24873413 -4.16340637 475.23910522 C-11.95071953 475.20526765 -19.73776957 475.14968109 -27.52487183 475.0835228 C-32.24407803 475.04409184 -36.96309887 475.01188192 -41.68244934 474.99642944 C-46.24088194 474.98123392 -50.79880478 474.94673725 -55.35700989 474.89911652 C-57.09199074 474.8843325 -58.82704438 474.87638624 -60.56208801 474.87554169 C-63.00135508 474.8731612 -65.4392256 474.84599708 -67.87825012 474.81332397 C-68.94316933 474.82086952 -68.94316933 474.82086952 -70.02960205 474.8285675 C-75.42925331 474.71739005 -79.57458462 473.18950838 -84.03840637 470.26742554 C-84.99746887 469.12273804 -84.99746887 469.12273804 -85.97590637 467.95492554 C-88.09104921 465.81927106 -88.09104921 465.81927106 -91.85481262 466.64242554 C-92.66120178 466.74837036 -93.46759094 466.85431519 -94.29841614 466.96347046 C-120.77028003 469.90007124 -145.49712134 465.60290002 -167.03840637 449.26742554 C-170.53080169 446.41462588 -173.82302543 443.42821597 -177.03840637 440.26742554 C-177.72547668 439.59324585 -178.412547 438.91906616 -179.12043762 438.22445679 C-188.43029297 428.43717296 -195.03344688 416.09900162 -199.03840637 403.26742554 C-199.35680481 402.28644897 -199.67520325 401.30547241 -200.00325012 400.29476929 C-206.11713858 377.55786614 -202.74713777 352.01713834 -192.03840637 331.26742554 C-187.30435461 323.11044416 -181.6412667 315.9843249 -175.03840637 309.26742554 C-174.36422668 308.58035522 -173.690047 307.89328491 -172.99543762 307.18539429 C-163.2081538 297.87553894 -150.86998246 291.27238503 -138.03840637 287.26742554 C-136.56694153 286.78982788 -136.56694153 286.78982788 -135.06575012 286.30258179 C-116.21726024 281.23427658 -95.35610829 283.1615249 -77.03840637 289.26742554 C-74.07117031 289.35912088 -71.12783361 289.39337196 -68.16072083 289.38095093 C-67.25320068 289.38109695 -66.34568054 289.38124298 -65.41065979 289.38139343 C-62.40764485 289.38069614 -59.40469175 289.3729123 -56.40168762 289.36508179 C-54.32089268 289.36321696 -52.2400973 289.36179336 -50.15930176 289.36079407 C-44.67990407 289.35697402 -39.20053285 289.34714809 -33.72114563 289.33609009 C-28.13093931 289.32586496 -22.54072872 289.32129408 -16.95051575 289.31625366 C-5.97979912 289.30552538 4.99089092 289.2879327 15.96159363 289.26742554 C15.96159363 279.69742554 15.96159363 270.12742554 15.96159363 260.26742554 C-67.52840637 260.26742554 -151.01840637 260.26742554 -237.03840637 260.26742554 Z M-166.03840637 323.26742554 C-180.62801767 338.17633809 -186.71907835 358.34104901 -186.50715637 378.78158569 C-185.81713456 400.55680517 -176.0422203 418.60751412 -160.67512512 433.56820679 C-147.14703881 445.27739074 -127.90445084 452.5295191 -110.03840637 452.26742554 C-103.69644263 451.79629075 -97.08341433 451.28242819 -91.03840637 449.26742554 C-91.03840637 445.63742554 -91.03840637 442.00742554 -91.03840637 438.26742554 C-92.12895325 438.42598022 -93.21950012 438.58453491 -94.34309387 438.74789429 C-116.17291738 441.44903509 -134.8426221 438.70027673 -152.66340637 425.20492554 C-164.28801 415.30740587 -172.93543324 400.06167061 -174.25984192 384.69882202 C-175.12919881 363.80645207 -171.52490387 347.20668434 -157.64778137 330.90805054 C-146.97685002 320.1093236 -131.83501928 312.3438013 -116.50715637 312.03695679 C-114.51752539 312.04089925 -112.52789024 312.05541179 -110.53840637 312.07992554 C-109.04760559 312.08089233 -109.04760559 312.08089233 -107.52668762 312.08187866 C-101.94355015 312.11506772 -96.56096573 312.44561611 -91.03840637 313.26742554 C-90.70840637 309.63742554 -90.37840637 306.00742554 -90.03840637 302.26742554 C-118.42811834 295.16999754 -145.01252808 303.06009024 -166.03840637 323.26742554 Z M-74.03840637 307.26742554 C-75.00807642 310.17643567 -75.16193083 312.00730044 -75.15866089 315.03199768 C-75.16003839 316.01012767 -75.16141588 316.98825766 -75.16283512 317.99602795 C-75.15923701 319.07196366 -75.1556389 320.14789938 -75.15193176 321.25643921 C-75.1520523 322.40661435 -75.15217283 323.55678949 -75.15229702 324.74181843 C-75.15154933 328.4730299 -75.14392755 332.20419172 -75.13606262 335.93539429 C-75.13459276 338.2357277 -75.13357232 340.53606145 -75.13301086 342.83639526 C-75.12776311 351.37591045 -75.11380196 359.91541848 -75.10090637 368.45492554 C-75.08028137 387.53305054 -75.05965637 406.61117554 -75.03840637 426.26742554 C1.19159363 426.26742554 77.42159363 426.26742554 155.96159363 426.26742554 C155.98221863 407.18930054 156.00284363 388.11117554 156.02409363 368.45492554 C156.03319763 362.42622192 156.04230164 356.39751831 156.05168152 350.18612671 C156.05502551 344.79206114 156.05502551 344.79206114 156.05703735 339.397995 C156.05857508 336.99145829 156.06209651 334.58492236 156.06716919 332.1783905 C156.07446105 328.53772641 156.07550055 324.89710948 156.07511902 321.25643921 C156.07871713 320.18050349 156.08231524 319.10456778 156.08602238 317.99602795 C156.08395613 316.52883296 156.08395613 316.52883296 156.08184814 315.03199768 C156.08276994 314.17933917 156.08369173 313.32668066 156.08464146 312.44818401 C156.0470215 310.08657288 156.0470215 310.08657288 154.96159363 307.26742554 C151.6214448 305.59735112 147.86526524 306.13100647 144.19267273 306.14044189 C143.27357573 306.1388819 142.35447873 306.13732191 141.40753031 306.13571465 C138.30899894 306.13170659 135.21051604 306.13489356 132.11198425 306.13803101 C129.89821341 306.13667688 127.68444279 306.13489688 125.47067261 306.13272095 C119.44398386 306.12814797 113.41731216 306.12993563 107.39062309 306.13310003 C101.09612353 306.13562433 94.80162547 306.1332859 88.50712585 306.13171387 C77.25680381 306.12977556 66.00648881 306.13289151 54.75616843 306.1379732 C44.54843521 306.14244116 34.34071336 306.1416652 24.13298035 306.13705444 C12.28893383 306.1317071 0.44489282 306.12970869 -11.39915514 306.13266671 C-17.67243759 306.13422916 -23.94571219 306.1344241 -30.21899414 306.13113022 C-36.11548839 306.12825067 -42.01196108 306.13022876 -47.90845299 306.13602448 C-50.07811637 306.13735162 -52.24778155 306.13695872 -54.41744423 306.13476181 C-57.36814951 306.13204855 -60.31878472 306.13543365 -63.26948547 306.14044189 C-64.13775892 306.13821117 -65.00603236 306.13598045 -65.90061712 306.13368213 C-70.10336015 306.03126771 -70.10336015 306.03126771 -74.03840637 307.26742554 Z M-143.53840637 340.57992554 C-148.08124746 344.9812683 -151.2756701 349.59518262 -154.03840637 355.26742554 C-154.45090637 356.0627771 -154.86340637 356.85812866 -155.28840637 357.67758179 C-159.72748272 367.65009011 -159.90815466 381.00720264 -156.41340637 391.32992554 C-155.67526735 393.00045068 -154.88329675 394.64827029 -154.03840637 396.26742554 C-153.59110168 397.13754272 -153.143797 398.00765991 -152.68293762 398.90414429 C-145.90236869 411.06554003 -135.87058276 418.12139591 -122.74934387 422.51351929 C-111.78730396 425.56204047 -101.17936474 424.33790472 -91.03840637 419.26742554 C-91.03840637 409.03742554 -91.03840637 398.80742554 -91.03840637 388.26742554 C-93.01840637 389.58742554 -94.99840637 390.90742554 -97.03840637 392.26742554 C-100.51178557 393.03996347 -103.8003243 392.88646658 -107.03840637 391.26742554 C-108.7297475 387.88474328 -108.93540804 384.8683387 -108.03840637 381.26742554 C-106.07194381 378.21621814 -103.63251756 375.79101719 -101.03840637 373.26742554 C-100.40547668 372.61129272 -99.772547 371.95515991 -99.12043762 371.27914429 C-96.51752206 368.59852975 -94.16191151 366.3497623 -91.03840637 364.26742554 C-90.77113623 361.7840165 -90.68974303 359.55270486 -90.74543762 357.07211304 C-90.74968246 356.36466949 -90.75392731 355.65722595 -90.75830078 354.92834473 C-90.7751109 352.66598649 -90.8127651 350.40451506 -90.85090637 348.14242554 C-90.8659503 346.60988631 -90.87963921 345.07733313 -90.891922 343.54476929 C-90.92502175 339.78531236 -90.97681813 336.02651935 -91.03840637 332.26742554 C-109.02102942 322.95709529 -128.5386234 327.89645088 -143.53840637 340.57992554 Z M-75.03840637 442.26742554 C-75.6708619 452.89710522 -75.6708619 452.89710522 -74.03840637 457.26742554 C-70.69825754 458.93749995 -66.94207798 458.40384461 -63.26948547 458.39440918 C-62.35038847 458.39596917 -61.43129148 458.39752916 -60.48434305 458.39913642 C-57.38581168 458.40314448 -54.28732878 458.39995751 -51.188797 458.39682007 C-48.97502616 458.39817419 -46.76125554 458.39995419 -44.54748535 458.40213013 C-38.5207966 458.40670311 -32.4941249 458.40491545 -26.46743584 458.40175104 C-20.17293628 458.39922675 -13.87843821 458.40156517 -7.5839386 458.40313721 C3.66638345 458.40507551 14.91669844 458.40195956 26.16701883 458.39687787 C36.37475205 458.39240991 46.5824739 458.39318587 56.79020691 458.39779663 C68.63425343 458.40314397 80.47829444 458.40514239 92.3223424 458.40218437 C98.59562484 458.40062191 104.86889945 458.40042697 111.1421814 458.40372086 C117.03867565 458.4066004 122.93514833 458.40462232 128.83164024 458.3988266 C131.00130363 458.39749945 133.17096881 458.39789235 135.34063148 458.40008926 C138.29133676 458.40280253 141.24197197 458.39941743 144.19267273 458.39440918 C145.06094617 458.3966399 145.92921962 458.39887062 146.82380438 458.40116894 C151.0265474 458.50358336 151.0265474 458.50358336 154.96159363 457.26742554 C156.59404916 452.89710522 156.59404916 452.89710522 155.96159363 442.26742554 C79.73159363 442.26742554 3.50159363 442.26742554 -75.03840637 442.26742554 Z M19.96159363 475.26742554 C19.96159363 481.53742554 19.96159363 487.80742554 19.96159363 494.26742554 C33.49159363 494.26742554 47.02159363 494.26742554 60.96159363 494.26742554 C60.96159363 487.99742554 60.96159363 481.72742554 60.96159363 475.26742554 C47.43159363 475.26742554 33.90159363 475.26742554 19.96159363 475.26742554 Z " fill="#ffffff" transform="translate(254.0384063720703,0.732574462890625)"/>
<path d="M0 0 C2.875 1.4375 2.875 1.4375 5 4 C5.78450538 7.75499686 5.85482098 11.44396965 3.97896004 14.85859871 C2.4745559 16.69436596 0.88030632 18.3365451 -0.82397461 19.98852539 C-1.44350006 20.62382172 -2.06302551 21.25911804 -2.70132446 21.91366577 C-4.74633574 23.99814586 -6.82234643 26.04812974 -8.90234375 28.09765625 C-10.33941817 29.5407969 -11.77515463 30.98527103 -13.20960999 32.43101501 C-16.21753063 35.45218756 -19.24108307 38.45652625 -22.27661133 41.44995117 C-26.16121742 45.28327802 -30.00400869 49.15560306 -33.83597469 53.04146671 C-36.79237477 56.03043123 -39.76993076 58.99757495 -42.75427437 61.95861626 C-44.1797982 63.37814792 -45.59869857 64.80436395 -47.0106945 66.23735237 C-48.98994681 68.23953745 -50.99590622 70.21049235 -53.01147461 72.17602539 C-53.58691513 72.76968399 -54.16235565 73.36334259 -54.75523376 73.97499084 C-58.01092022 77.08294737 -60.20639035 78.37098721 -64.77662659 78.49681091 C-68.16962421 78.3693252 -68.82307719 78.14671648 -71.5625 75.875 C-73.33033071 72.33933859 -73.84034017 70.89612263 -73 67 C-67.38312439 59.10702666 -59.54000068 52.39451815 -52.69921875 45.56640625 C-51.41349441 44.28000728 -50.12791847 42.99345999 -48.84248352 41.70677185 C-46.16378035 39.0266024 -43.48329671 36.3482302 -40.80151367 33.67114258 C-37.36032813 30.23568842 -33.92369827 26.79571731 -30.4883604 23.35441685 C-27.84197635 20.70442771 -25.19322579 18.05681436 -22.54374123 15.40992546 C-21.27470266 14.14155452 -20.00640802 12.87243881 -18.73886681 11.60257149 C-16.97504305 9.83621839 -15.2080637 8.07308492 -13.44018555 6.31079102 C-12.65395309 5.52152222 -12.65395309 5.52152222 -11.85183716 4.71630859 C-7.81006118 0.69824426 -5.79721108 -0.56835403 0 0 Z " fill="#ffffff" transform="translate(306,324)"/>
<path d="M0 0 C0.66 -0.0103125 1.32 -0.020625 2 -0.03125 C4.9972771 0.76490173 6.09605164 2.05989978 8 4.5 C8.39488365 7.18465842 8.54782777 9.46001017 8.51757812 12.14257812 C8.5245874 12.90726913 8.53159668 13.67196014 8.53881836 14.45982361 C8.5564035 16.98400334 8.54477449 19.50705915 8.53125 22.03125 C8.53394478 23.78715225 8.53782709 25.54305305 8.54284668 27.2989502 C8.54874241 30.97760232 8.54017655 34.65586574 8.52148438 38.33447266 C8.49869456 43.04921661 8.51181728 47.76304978 8.53577423 52.47776031 C8.55023032 56.10319884 8.54562714 59.72842154 8.53526306 63.35386658 C8.53259524 65.09219979 8.5358675 66.83055261 8.54518127 68.56886292 C8.55534406 70.99891033 8.53985131 73.42748419 8.51757812 75.85742188 C8.52567505 76.57546494 8.53377197 77.293508 8.54211426 78.03330994 C8.48399379 81.45704651 8.2267196 83.20943616 6.09265137 85.94445801 C3.82181027 87.63245475 2.79333335 88.04364583 0 88 C-0.66 88.0103125 -1.32 88.020625 -2 88.03125 C-4.9972771 87.23509827 -6.09605164 85.94010022 -8 83.5 C-8.39488365 80.81534158 -8.54782777 78.53998983 -8.51757812 75.85742188 C-8.5245874 75.09273087 -8.53159668 74.32803986 -8.53881836 73.54017639 C-8.5564035 71.01599666 -8.54477449 68.49294085 -8.53125 65.96875 C-8.53394478 64.21284775 -8.53782709 62.45694695 -8.54284668 60.7010498 C-8.54874241 57.02239768 -8.54017655 53.34413426 -8.52148438 49.66552734 C-8.49869456 44.95078339 -8.51181728 40.23695022 -8.53577423 35.52223969 C-8.55023032 31.89680116 -8.54562714 28.27157846 -8.53526306 24.64613342 C-8.53259524 22.90780021 -8.5358675 21.16944739 -8.54518127 19.43113708 C-8.55534406 17.00108967 -8.53985131 14.57251581 -8.51757812 12.14257812 C-8.52972351 11.06551353 -8.52972351 11.06551353 -8.54211426 9.96669006 C-8.48399379 6.54295349 -8.2267196 4.79056384 -6.09265137 2.05554199 C-3.82181027 0.36754525 -2.79333335 -0.04364583 0 0 Z " fill="#ffffff" transform="translate(278,70.5)"/>
<path d="M0 0 C1.22807373 -0.0157608 2.45614746 -0.03152161 3.72143555 -0.04776001 C5.05778908 -0.03881016 6.39413443 -0.02855515 7.73046875 -0.01708984 C9.10522897 -0.02045956 10.47998629 -0.02531347 11.85473633 -0.03158569 C14.73319926 -0.03895002 17.61088534 -0.02826763 20.48925781 -0.00488281 C24.17523527 0.02360705 27.85939265 0.00720038 31.54530334 -0.02274513 C34.38331771 -0.0408314 37.22090198 -0.03505452 40.05892944 -0.02210617 C41.41767595 -0.01877571 42.77646177 -0.02284674 44.13516235 -0.03450394 C46.03541293 -0.04723033 47.93580079 -0.0243859 49.8359375 0 C51.45665161 0.00596695 51.45665161 0.00596695 53.11010742 0.01205444 C55.91796875 0.64697266 55.91796875 0.64697266 58.2668457 2.99990845 C60.30051035 6.26025958 60.54792395 7.86724148 59.91796875 11.64697266 C58.2668457 14.29403687 58.2668457 14.29403687 55.91796875 16.64697266 C53.11010742 17.28189087 53.11010742 17.28189087 49.8359375 17.29394531 C48.60786377 17.30970612 47.37979004 17.32546692 46.11450195 17.34170532 C44.77814842 17.33275547 43.44180307 17.32250046 42.10546875 17.31103516 C40.73070853 17.31440487 39.35595121 17.31925878 37.98120117 17.32553101 C35.10273824 17.33289533 32.22505216 17.32221294 29.34667969 17.29882812 C25.66070223 17.27033826 21.97654485 17.28674493 18.29063416 17.31669044 C15.45261979 17.33477671 12.61503552 17.32899983 9.77700806 17.31605148 C8.41826155 17.31272102 7.05947573 17.31679205 5.70077515 17.32844925 C3.80052457 17.34117565 1.90013671 17.31833121 0 17.29394531 C-1.08047607 17.28996735 -2.16095215 17.28598938 -3.27416992 17.28189087 C-6.08203125 16.64697266 -6.08203125 16.64697266 -8.4309082 14.29403687 C-10.46457285 11.03368573 -10.71198645 9.42670383 -10.08203125 5.64697266 C-7.19706077 1.0218164 -5.40994072 0.01991767 0 0 Z " fill="#ffffff" transform="translate(45.08203125,211.35302734375)"/>
<path d="M0 0 C2.5 1.5 2.5 1.5 4 4 C4.70677834 7.85515456 5.09552889 10.35093819 2.88720703 13.67504883 C-2.87216487 19.99528197 -8.89808475 26.04936277 -14.95385742 32.08422852 C-16.82914563 33.95409753 -18.69895465 35.82932899 -20.56835938 37.70507812 C-21.76009565 38.89615461 -22.95214155 40.0869214 -24.14453125 41.27734375 C-24.70284134 41.83767807 -25.26115143 42.39801239 -25.83638 42.97532654 C-30.79397211 47.90273969 -30.79397211 47.90273969 -35.875 48.3125 C-38.82968653 48.25340627 -39.89058393 48.06564964 -42.5 46.5 C-44.19909247 43.66817922 -44.75981138 41.41479589 -44.55419922 38.1027832 C-42.38143862 29.85873606 -31.00363978 21.85270104 -25.04614258 15.91577148 C-23.17085437 14.04590247 -21.30104535 12.17067101 -19.43164062 10.29492188 C-18.23990435 9.10384539 -17.04785845 7.9130786 -15.85546875 6.72265625 C-15.29715866 6.16232193 -14.73884857 5.60198761 -14.16362 5.02467346 C-9.57570617 0.4646882 -6.54547604 -0.89256491 0 0 Z " fill="#ffffff" transform="translate(153,342)"/>
<path d="M0 0 C2.875 1.4375 2.875 1.4375 5 4 C5.77134329 7.12329748 5.69388949 9.86444423 5 13 C2.91802381 16.3020888 0.24382735 18.83165826 -2.5859375 21.5 C-3.35805573 22.26175537 -4.13017395 23.02351074 -4.9256897 23.80834961 C-7.38843352 26.22748606 -9.88092983 28.61321719 -12.375 31 C-14.04626633 32.63468108 -15.71556147 34.27138006 -17.3828125 35.91015625 C-20.43032023 38.89106544 -23.48268921 41.86630765 -26.56005859 44.81640625 C-27.17738861 45.40881104 -27.79471863 46.00121582 -28.43075562 46.61157227 C-30.63806999 48.56454818 -31.84526137 48.98280682 -34.8125 49.3125 C-38.91448247 48.91034486 -40.36270753 48.18026445 -43 45 C-43.77134329 41.87670252 -43.69388949 39.13555577 -43 36 C-40.91802381 32.6979112 -38.24382735 30.16834174 -35.4140625 27.5 C-34.64194427 26.73824463 -33.86982605 25.97648926 -33.0743103 25.19165039 C-30.61156648 22.77251394 -28.11907017 20.38678281 -25.625 18 C-23.95373367 16.36531892 -22.28443853 14.72861994 -20.6171875 13.08984375 C-17.56967977 10.10893456 -14.51731079 7.13369235 -11.43994141 4.18359375 C-10.82261139 3.59118896 -10.20528137 2.99878418 -9.56924438 2.38842773 C-6.47785527 -0.34675515 -4.0480609 -0.39686872 0 0 Z " fill="#ffffff" transform="translate(332,346)"/>
<path d="M0 0 C1.14257263 -0.00717545 1.14257263 -0.00717545 2.30822754 -0.01449585 C3.91530427 -0.01789143 5.52245038 -0.00871253 7.12939453 0.01220703 C9.58653045 0.03898382 12.03909955 0.01245445 14.49609375 -0.01953125 C16.05990589 -0.01622708 17.6237152 -0.00982069 19.1875 0 C19.91988892 -0.01012115 20.65227783 -0.02024231 21.40686035 -0.03067017 C25.18654062 0.05597657 26.78312064 0.36716636 29.55664062 3.01806641 C31.45084658 6.27877227 31.71290216 7.94914952 31.09375 11.6640625 C29.55664062 14.31005859 29.55664062 14.31005859 27.09375 16.6640625 C24.25577916 17.17358978 22.02269197 17.36730557 19.1875 17.328125 C18.04492737 17.33530045 18.04492737 17.33530045 16.87927246 17.34262085 C15.27219573 17.34601643 13.66504962 17.33683753 12.05810547 17.31591797 C9.60096955 17.28914118 7.14840045 17.31567055 4.69140625 17.34765625 C3.12759411 17.34435208 1.5637848 17.33794569 0 17.328125 C-0.73238892 17.33824615 -1.46477783 17.34836731 -2.21936035 17.35879517 C-5.99904062 17.27214843 -7.59562064 16.96095864 -10.36914062 14.31005859 C-12.26334658 11.04935273 -12.52540216 9.37897548 -11.90625 5.6640625 C-8.83052806 0.3694827 -5.75920756 -0.07958863 0 0 Z " fill="#ffffff" transform="translate(220.90625,211.3359375)"/>
<path d="M0 0 C1.14257263 -0.00717545 1.14257263 -0.00717545 2.30822754 -0.01449585 C3.91530427 -0.01789143 5.52245038 -0.00871253 7.12939453 0.01220703 C9.58653045 0.03898382 12.03909955 0.01245445 14.49609375 -0.01953125 C16.05990589 -0.01622708 17.6237152 -0.00982069 19.1875 0 C19.91988892 -0.01012115 20.65227783 -0.02024231 21.40686035 -0.03067017 C25.18654062 0.05597657 26.78312064 0.36716636 29.55664062 3.01806641 C31.45084658 6.27877227 31.71290216 7.94914952 31.09375 11.6640625 C29.55664062 14.31005859 29.55664062 14.31005859 27.09375 16.6640625 C24.25577916 17.17358978 22.02269197 17.36730557 19.1875 17.328125 C18.04492737 17.33530045 18.04492737 17.33530045 16.87927246 17.34262085 C15.27219573 17.34601643 13.66504962 17.33683753 12.05810547 17.31591797 C9.60096955 17.28914118 7.14840045 17.31567055 4.69140625 17.34765625 C3.12759411 17.34435208 1.5637848 17.33794569 0 17.328125 C-0.73238892 17.33824615 -1.46477783 17.34836731 -2.21936035 17.35879517 C-5.99904062 17.27214843 -7.59562064 16.96095864 -10.36914062 14.31005859 C-12.26334658 11.04935273 -12.52540216 9.37897548 -11.90625 5.6640625 C-8.83052806 0.3694827 -5.75920756 -0.07958863 0 0 Z " fill="#ffffff" transform="translate(166.90625,211.3359375)"/>
</svg>
