<?xml version="1.0" encoding="UTF-8"?>
<svg version="1.1" xmlns="http://www.w3.org/2000/svg" width="512" height="512">
<path d="M0 0 C1.30329758 -0.00846954 2.60659515 -0.01693909 3.9493866 -0.02566528 C7.50943772 -0.0478038 11.06925685 -0.05081584 14.62936735 -0.04891777 C17.60879953 -0.04879771 20.58818319 -0.05737636 23.5676018 -0.06569529 C30.6009279 -0.08490191 37.63413533 -0.08782327 44.66748047 -0.08105469 C51.90615031 -0.0744163 59.14431029 -0.09727596 66.38287675 -0.13436842 C72.61328533 -0.165128 78.84353042 -0.17641869 85.07401335 -0.1725316 C88.78833305 -0.17047047 92.50225585 -0.17584389 96.21650314 -0.20042419 C100.3621233 -0.22695519 104.50667599 -0.21291605 108.65234375 -0.1953125 C109.87133865 -0.20857574 111.09033356 -0.22183899 112.3462677 -0.23550415 C120.65676921 -0.15366134 126.61995582 1.39690133 132.79764366 7.12918854 C138.15520299 12.73248312 140.0830783 18.63931107 140.45556641 26.29492188 C140.23379015 33.62277908 137.95462294 39.16550014 132.98291016 44.56054688 C129.70294768 47.5768862 127.32121225 49.44277576 122.95556641 50.41992188 C123.01443126 87.89909362 123.08896626 125.37820291 123.18455269 162.85729963 C123.19582101 167.2808427 123.20695944 171.70438609 123.21801758 176.12792969 C123.2213231 177.44891593 123.2213231 177.44891593 123.22469541 178.79658876 C123.2600794 193.0609168 123.28493731 207.32524479 123.30591343 221.58960046 C123.3276667 236.22332518 123.36071262 250.85699289 123.40426797 265.49066913 C123.43079284 274.52231681 123.44848205 283.55389342 123.45491245 292.58557813 C123.46016377 298.77676522 123.47637214 304.96786285 123.50123207 311.15900202 C123.51525586 314.73235915 123.52441462 318.30555612 123.52057457 321.87894249 C123.5165382 325.75243325 123.53555727 329.62561508 123.55683899 333.49905396 C123.55199141 334.62940665 123.54714384 335.75975935 123.54214936 336.92436516 C123.60007405 343.29196706 123.96729879 348.14372223 128.45556641 353.06445312 C133.40408134 356.91759366 136.68432154 357.93395834 142.95556641 357.41992188 C148.26669854 355.77505633 151.45351906 353.6696247 154.14624023 348.62036133 C155.79673662 344.13290314 155.69356055 339.52522881 155.70556641 334.79492188 C155.77904297 333.25964844 155.77904297 333.25964844 155.85400391 331.69335938 C155.87724437 328.71858053 155.79133141 326.27754266 154.95556641 323.41992188 C152.56176226 321.03777371 149.98314606 319.83367986 146.95556641 318.41992188 C139.9990349 311.65662736 138.60845247 303.11050869 138.43798828 293.81445312 C138.39676549 289.95333374 138.40654823 286.09366307 138.42431641 282.23242188 C138.42161765 280.16316547 138.41773205 278.0939103 138.41271973 276.0246582 C138.40684275 271.70088555 138.4153295 267.37744482 138.43408203 263.05371094 C138.45687025 257.53265455 138.4437375 252.01237616 138.41979218 246.49134827 C138.40528548 242.22231261 138.4099625 237.95345909 138.42030334 233.68441772 C138.42295717 231.64960639 138.41974858 229.6147781 138.41038513 227.57998657 C138.36400777 214.67106504 138.39545458 204.12839477 147.19775391 193.89257812 C149.5658508 191.90863917 152.1669533 190.72101574 154.95556641 189.41992188 C154.97538574 188.69627441 154.99520508 187.97262695 155.015625 187.22705078 C156.2901661 142.80119543 164.14328137 104.05185966 193.95556641 69.41992188 C194.74962891 68.49050781 195.54369141 67.56109375 196.36181641 66.60351562 C202.0499164 60.13240186 208.11559372 54.64651117 214.95556641 49.41992188 C215.80634766 48.75347656 216.65712891 48.08703125 217.53369141 47.40039062 C251.06794532 21.94849432 293.28483567 12.70468459 334.72021484 18.19580078 C338.18091646 18.76831389 341.56205229 19.53621078 344.95556641 20.41992188 C345.73963867 20.61859863 346.52371094 20.81727539 347.33154297 21.02197266 C386.84189478 31.29589546 421.49912791 55.71285672 442.70947266 90.90429688 C456.2934136 114.23806219 464.14289799 140.01434735 464.07582092 167.0748291 C464.07710256 168.97168339 464.07710256 168.97168339 464.07841009 170.90685797 C464.0806373 174.40047948 464.07665813 177.8940701 464.07163203 181.38768768 C464.06730217 185.1612701 464.06877575 188.93485086 464.0695343 192.70843506 C464.07005793 199.2409964 464.06692795 205.77354774 464.06129646 212.30610657 C464.05315965 221.75101883 464.05056401 231.19592627 464.04930847 240.64084166 C464.04712138 255.96564198 464.04047059 271.29043696 464.03100586 286.61523438 C464.02182287 301.49934869 464.01474637 316.38346155 464.01049805 331.26757812 C464.01010396 332.6444174 464.01010396 332.6444174 464.00970192 334.04907161 C464.00839685 338.65400047 464.00713315 343.25892934 464.00589001 347.86385822 C463.99552808 386.04921651 463.97791908 424.23456884 463.95556641 462.41992188 C464.89142578 462.70222656 465.82728516 462.98453125 466.79150391 463.27539062 C472.67194746 465.40251403 477.29190439 471.0627831 480.04541016 476.61914062 C482.17733364 483.17960902 482.31000782 492.5477194 479.39306641 498.91992188 C475.4396004 505.3095025 470.30834886 510.35689905 462.95556641 512.41992188 C458.60771318 512.86744135 454.27904758 512.85030996 449.91113281 512.83984375 C448.60783524 512.84831329 447.30453766 512.85678284 445.96174622 512.86550903 C442.4016951 512.88764755 438.84187596 512.89065959 435.28176546 512.88876152 C432.30233328 512.88864146 429.32294962 512.89722011 426.34353101 512.90553904 C419.31020491 512.92474566 412.27699748 512.92766702 405.24365234 512.92089844 C398.0049825 512.91426005 390.76682252 512.93711971 383.52825606 512.97421217 C377.29784748 513.00497175 371.06760239 513.01626244 364.83711946 513.01237535 C361.12279977 513.01031422 357.40887697 513.01568764 353.69462967 513.04026794 C349.54900951 513.06679894 345.40445682 513.0527598 341.25878906 513.03515625 C339.43029671 513.05505112 339.43029671 513.05505112 337.56486511 513.0753479 C329.2543636 512.99350509 323.291177 511.44294242 317.11348915 505.71065521 C311.75592983 500.10736063 309.82805451 494.20053268 309.45556641 486.54492188 C309.67734266 479.21706467 311.95650988 473.67434361 316.92822266 468.27929688 C320.20818513 465.26295755 322.58992056 463.39706799 326.95556641 462.41992188 C326.89670155 424.94075013 326.82216655 387.46164084 326.72658012 349.98254412 C326.7153118 345.55900105 326.70417337 341.13545766 326.69311523 336.71191406 C326.68980971 335.39092782 326.68980971 335.39092782 326.68643741 334.04325499 C326.65105341 319.77892695 326.6261955 305.51459896 326.60521939 291.25024329 C326.58346611 276.61651857 326.5504202 261.98285086 326.50686485 247.34917462 C326.48033997 238.31752694 326.46265076 229.28595033 326.45622037 220.25426562 C326.45096904 214.06307853 326.43476067 207.8719809 326.40990075 201.68084173 C326.39587695 198.1074846 326.38671819 194.53428763 326.39055824 190.96090126 C326.39459461 187.0874105 326.37557554 183.21422867 326.35429382 179.34078979 C326.3591414 178.2104371 326.36398898 177.0800844 326.36898345 175.91547859 C326.31105876 169.54787669 325.94383402 164.69612152 321.45556641 159.77539062 C316.50705147 155.92225009 313.22681127 154.90588541 306.95556641 155.41992188 C301.64443427 157.06478742 298.45761375 159.17021905 295.76489258 164.21948242 C294.11439619 168.70694061 294.21757226 173.31461494 294.20556641 178.04492188 C294.15658203 179.0684375 294.10759766 180.09195313 294.05712891 181.14648438 C294.03389008 184.12105474 294.11981316 186.56250692 294.95556641 189.41992188 C296.85593998 191.30388325 298.59143639 192.353289 301.00610352 193.48803711 C305.75505091 195.75813507 307.90358587 200.827394 309.95556641 205.41992188 C311.21990406 209.69012176 311.11857123 213.92539164 311.13256836 218.34423828 C311.13913956 219.24559509 311.14571075 220.1469519 311.15248108 221.07562256 C311.17218444 224.0575774 311.18387157 227.03948188 311.19384766 230.02148438 C311.19792318 231.04239544 311.20199871 232.0633065 311.20619774 233.11515427 C311.2270482 238.52126614 311.24135304 243.92735273 311.25073242 249.33349609 C311.26178048 254.90171921 311.29616505 260.46954092 311.33590412 266.03762245 C311.36212367 270.33235386 311.37042912 274.6269905 311.3740139 278.92179489 C311.37886788 280.9733793 311.39044772 283.02495981 311.4090519 285.07646561 C311.51955323 298.07175899 311.57965506 308.63705306 302.71337891 318.94726562 C300.34528202 320.93120458 297.74417952 322.11882801 294.95556641 323.41992188 C294.93574707 324.14356934 294.91592773 324.8672168 294.89550781 325.61279297 C293.58990287 371.12142066 285.22957134 412.23997177 252.95556641 446.41992188 C251.92729159 447.64287007 250.90574027 448.87152421 249.89306641 450.10742188 C228.01116502 475.68599325 190.01684514 492.41478267 156.95556641 495.41992188 C139.75877272 496.44877605 121.71138824 496.78333547 104.95556641 492.41992188 C103.77945801 492.12190674 103.77945801 492.12190674 102.57958984 491.81787109 C63.06923803 481.54394829 28.4120049 457.12698703 7.20166016 421.93554688 C-0.05169114 409.48220718 -5.22453084 396.66460415 -9.29443359 382.85742188 C-9.5409668 382.03137451 -9.7875 381.20532715 -10.04150391 380.35424805 C-13.32043383 368.74080435 -14.34546944 357.07088348 -14.28494263 345.04348755 C-14.28665148 343.77379147 -14.28836033 342.5040954 -14.29012096 341.19592369 C-14.29454124 337.71582265 -14.28666529 334.23584738 -14.27656484 330.75576234 C-14.26785478 326.98637575 -14.27085579 323.21699515 -14.27236938 319.44760132 C-14.2734135 312.931503 -14.2671867 306.41544502 -14.25589371 299.89935684 C-14.23957705 290.47841888 -14.23442442 281.05750025 -14.23191772 271.6365497 C-14.22755025 256.34834632 -14.21426698 241.0601644 -14.1953125 225.77197266 C-14.17692909 210.92887478 -14.16278466 196.08578275 -14.15429688 181.24267578 C-14.15377143 180.32635927 -14.15324598 179.41004276 -14.15270461 178.46595909 C-14.15009437 173.86865406 -14.14756699 169.27134899 -14.1450808 164.67404389 C-14.12437785 126.58932154 -14.08917827 88.50462313 -14.04443359 50.41992188 C-15.44822266 49.99646484 -15.44822266 49.99646484 -16.88037109 49.56445312 C-22.76081465 47.43732972 -27.38077157 41.77706065 -30.13427734 36.22070312 C-32.26620083 29.66023473 -32.398875 20.29212435 -29.48193359 13.91992188 C-22.11239377 2.00929238 -13.31306147 -0.03190018 0 0 Z M-13.04443359 22.41992188 C-13.71110026 25.91992188 -13.71110026 25.91992188 -13.04443359 29.41992188 C-11.17734855 31.78489627 -9.72381928 33.08022903 -7.04443359 34.41992188 C-5.43397745 34.51894586 -3.81946708 34.55497904 -2.20597839 34.56036377 C-0.67290291 34.56892899 -0.67290291 34.56892899 0.8911438 34.57766724 C2.57976028 34.57934402 2.57976028 34.57934402 4.30249023 34.58105469 C5.48468643 34.58601959 6.66688263 34.5909845 7.88490295 34.59609985 C11.13295637 34.60822122 14.38097376 34.61567013 17.62904572 34.62011051 C19.65831102 34.62304069 21.68757066 34.62714542 23.71683311 34.63161469 C30.06586901 34.6452921 36.41489198 34.65495717 42.76394159 34.65881658 C50.09290842 34.66329605 57.42168864 34.68083762 64.75059873 34.70981717 C70.41521773 34.73143815 76.07978425 34.7415211 81.74444407 34.74285769 C85.12775034 34.74390557 88.51088124 34.74980919 91.89414406 34.76767731 C95.66972686 34.78469592 99.44485359 34.78286744 103.22045898 34.77636719 C104.34013062 34.78558197 105.45980225 34.79479675 106.61340332 34.80429077 C108.15916801 34.79593704 108.15916801 34.79593704 109.73616028 34.78741455 C110.62862363 34.78888111 111.52108698 34.79034767 112.44059467 34.79185867 C115.55845155 34.33076176 117.41382188 33.26037692 119.95556641 31.41992188 C122.30079576 28.5347921 122.30079576 28.5347921 121.83056641 24.91992188 C121.2869864 21.44975053 121.2869864 21.44975053 119.22822571 19.72540188 C116.50498247 18.16109367 114.84680551 18.04050299 111.71801758 18.03224182 C110.65811615 18.02233719 109.59821472 18.01243256 108.50619507 18.00222778 C107.3486673 18.00672943 106.19113953 18.01123108 104.99853516 18.01586914 C103.77542633 18.00900589 102.5523175 18.00214264 101.29214478 17.99507141 C97.94079262 17.97990538 94.58999661 17.97830931 91.23865128 17.9840138 C88.44032881 17.98710422 85.64205672 17.98101495 82.84374142 17.97497505 C76.24262742 17.96092952 69.64164285 17.96249168 63.04052734 17.97387695 C56.23074464 17.98536258 49.42135556 17.97127548 42.61162472 17.94448048 C36.76351872 17.92233099 30.91553636 17.91568424 25.0673914 17.92155689 C21.57513565 17.92492901 18.08313233 17.9224947 14.59091187 17.90530586 C10.69798312 17.88698069 6.80553951 17.90101613 2.91259766 17.91821289 C1.75506989 17.90854492 0.59754211 17.89887695 -0.59506226 17.88891602 C-1.65496368 17.89875015 -2.71486511 17.90858429 -3.80688477 17.91871643 C-5.18731209 17.91903036 -5.18731209 17.91903036 -6.59562683 17.91935062 C-9.83796063 18.58213019 -11.03302799 19.83773398 -13.04443359 22.41992188 Z M274.95556641 39.41992188 C273.82900635 39.72542969 273.82900635 39.72542969 272.6796875 40.03710938 C256.10212397 44.64851146 240.29779525 52.51240632 226.95556641 63.41992188 C226.40562012 63.8659375 225.85567383 64.31195313 225.2890625 64.77148438 C196.7452984 88.06107865 179.74193819 119.17884422 174.70556641 155.54492188 C173.81062048 166.1351153 173.95556641 176.79198111 173.95556641 187.41992188 C207.61556641 187.41992188 241.27556641 187.41992188 275.95556641 187.41992188 C276.28556641 179.49992188 276.61556641 171.57992187 276.95556641 163.41992188 C281.7934173 151.32529463 285.35264218 144.92271277 296.95556641 139.41992188 C305.40790497 136.04547577 315.09228849 136.49283554 323.60791016 139.38085938 C331.37974175 142.82063842 338.25586354 149.26066457 341.76806641 157.04492188 C343.39150317 161.65890003 344.07971739 165.75928837 344.09423161 170.64228535 C344.09970605 171.67984228 344.10518049 172.71739922 344.11082083 173.78639728 C344.11179894 174.91966282 344.11277704 176.05292836 344.11378479 177.22053528 C344.11872277 178.42945535 344.12366074 179.63837542 344.12874836 180.88392943 C344.14145089 184.23610595 344.14974176 187.588241 344.15617502 190.94043195 C344.16418812 194.55661349 344.17788276 198.17277402 344.19088745 201.78894043 C344.21263728 208.05307672 344.23078723 214.31721515 344.24649239 220.5813694 C344.26920461 229.63828526 344.29734557 238.69517786 344.32681166 247.75207397 C344.37447098 262.44627797 344.41773967 277.14049148 344.45825195 291.8347168 C344.49761532 306.10881287 344.53904357 320.38290049 344.58325195 334.65698242 C344.58597623 335.5368325 344.5887005 336.41668258 344.59150732 337.32319478 C344.60518694 341.73714273 344.61890719 346.15109056 344.63264763 350.56503832 C344.74658634 387.18331625 344.85259345 423.80161115 344.95556641 460.41992188 C378.28556641 460.41992188 411.61556641 460.41992188 445.95556641 460.41992188 C446.02178161 421.98148425 446.07714373 383.5431007 446.10876239 345.10462231 C446.11251423 340.56006386 446.11639722 336.01550553 446.12036133 331.47094727 C446.12114826 330.56625965 446.12193519 329.66157204 446.12274597 328.72946965 C446.1357773 314.10718599 446.15941854 299.48493795 446.18702479 284.86267538 C446.21514239 269.84360069 446.23175606 254.82454458 446.23783189 239.80544466 C446.24193519 230.5480818 446.25486512 221.29081963 446.27931581 212.03348779 C446.29525156 205.67359042 446.29994915 199.31374462 446.29607054 192.95382876 C446.2941611 189.29199697 446.29695537 185.63034033 446.31318283 181.96854019 C446.48936535 140.07828309 435.67568888 104.21570515 405.70556641 73.73242188 C399.00072385 67.08995779 391.94792801 61.42996251 383.95556641 56.41992188 C383.33601074 56.0311084 382.71645508 55.64229492 382.078125 55.24169922 C350.37669377 35.70898188 311.02295807 29.26935953 274.95556641 39.41992188 Z M3.95556641 52.41992188 C3.8893512 90.8583595 3.83398908 129.29674305 3.80237042 167.73522144 C3.79861858 172.27977989 3.79473559 176.82433822 3.79077148 181.36889648 C3.78998455 182.2735841 3.78919762 183.17827171 3.78838684 184.1103741 C3.77535552 198.73265776 3.75171427 213.3549058 3.72410802 227.97716837 C3.69599042 242.99624306 3.67937675 258.01529917 3.67330092 273.03439909 C3.66919762 282.29176195 3.65626769 291.54902412 3.63181701 300.80635596 C3.61588126 307.16625333 3.61118366 313.52609913 3.61506227 319.88601499 C3.61697171 323.54784678 3.61417745 327.20950342 3.59794998 330.87130356 C3.41976205 373.23374407 14.61933985 408.64094398 44.58056641 439.41992188 C69.64622871 464.38090907 104.3548449 477.84503789 139.51806641 477.79492188 C151.80206017 477.76625621 163.13356662 476.7470254 174.95556641 473.41992188 C176.08212646 473.11441406 176.08212646 473.11441406 177.23144531 472.80273438 C210.64830911 463.50712255 239.89451306 440.5384835 257.14306641 410.48242188 C272.64298331 382.74652748 275.95556641 357.49502732 275.95556641 325.41992188 C242.29556641 325.41992188 208.63556641 325.41992188 173.95556641 325.41992188 C173.62556641 333.33992188 173.29556641 341.25992187 172.95556641 349.41992188 C168.11771551 361.51454912 164.55849063 367.91713098 152.95556641 373.41992188 C144.50322784 376.79436798 134.81884433 376.34700821 126.30322266 373.45898438 C118.53139107 370.01920533 111.65526927 363.57917918 108.14306641 355.79492188 C106.51962965 351.18094372 105.83141542 347.08055538 105.81690121 342.1975584 C105.81142676 341.16000147 105.80595232 340.12244453 105.80031198 339.05344647 C105.79933388 337.92018093 105.79835577 336.78691539 105.79734802 335.61930847 C105.78994106 333.80592837 105.78994106 333.80592837 105.78238446 331.95591432 C105.76968192 328.6037378 105.76139105 325.25160275 105.7549578 321.8994118 C105.74694469 318.28323026 105.73325005 314.66706973 105.72024536 311.05090332 C105.69849553 304.78676703 105.68034558 298.5226286 105.66464043 292.25847435 C105.6419282 283.20155849 105.61378724 274.14466589 105.58432115 265.08776978 C105.53666183 250.39356578 105.49339314 235.69935227 105.45288086 221.00512695 C105.41351749 206.73103088 105.37208924 192.45694326 105.32788086 178.18286133 C105.32515659 177.30301125 105.32243232 176.42316117 105.31962549 175.51664897 C105.30594587 171.10270102 105.29222563 166.68875319 105.27848518 162.27480543 C105.16454648 125.6565275 105.05853937 89.0382326 104.95556641 52.41992188 C71.62556641 52.41992188 38.29556641 52.41992188 3.95556641 52.41992188 Z M157.66023254 210.07911682 C156.58676273 213.64503751 156.66949112 217.18313413 156.6809082 220.87280273 C156.67579727 221.72366959 156.67068634 222.57453644 156.66542053 223.45118713 C156.6515261 226.26245161 156.65248116 229.0734709 156.65478516 231.88476562 C156.6508982 233.84005321 156.64656353 235.79533996 156.64179993 237.75062561 C156.63433808 241.84867083 156.63462879 245.9466299 156.63989258 250.04467773 C156.64568773 255.29498482 156.62875488 260.54493919 156.6055479 265.79518795 C156.59081291 269.83323731 156.58993854 273.87120167 156.59305763 277.90927315 C156.59254432 279.84495302 156.58730476 281.78063763 156.57724571 283.71629143 C156.56490296 286.42364266 156.57165992 289.13030618 156.58325195 291.83764648 C156.57560822 292.63625092 156.56796448 293.43485535 156.56008911 294.25765991 C156.60315199 298.81017563 157.0179164 301.86661739 159.95556641 305.41992188 C163.04912455 307.34508701 165.4208156 307.67227812 169.03453064 307.68061829 C170.05933029 307.68770309 171.08412994 307.6947879 172.13998413 307.7020874 C173.81781479 307.69837128 173.81781479 307.69837128 175.52954102 307.69458008 C177.30327339 307.70224648 177.30327339 307.70224648 179.11283875 307.71006775 C182.35255156 307.72158512 185.5921057 307.72403748 188.8318336 307.72150445 C191.53809502 307.72043411 194.24433287 307.72531972 196.95058924 307.73010987 C203.33597393 307.74120185 209.72129979 307.74164421 216.10668945 307.7355957 C222.69030832 307.72955524 229.27371352 307.74186931 235.85729593 307.76316577 C241.51347271 307.78078837 247.16958152 307.78678211 252.82578474 307.78352803 C256.20234047 307.78171606 259.57874376 307.7843425 262.95527458 307.79824257 C266.72108374 307.81055632 270.48639627 307.80384518 274.25219727 307.79223633 C275.36872681 307.79988007 276.48525635 307.8075238 277.63562012 307.81539917 C278.66323959 307.80838486 279.69085907 307.80137054 280.74961853 307.79414368 C282.0844171 307.79439529 282.0844171 307.79439529 283.4461813 307.79465199 C287.12804504 307.24483394 289.94995569 305.70801004 292.25090027 302.76072693 C293.32437008 299.19480624 293.2416417 295.65670962 293.23022461 291.96704102 C293.23533554 291.11617416 293.24044647 290.26530731 293.24571228 289.38865662 C293.25960671 286.57739214 293.25865165 283.76637285 293.25634766 280.95507812 C293.26023461 278.99979054 293.26456928 277.04450379 293.26933289 275.08921814 C293.27679473 270.99117292 293.27650402 266.89321385 293.27124023 262.79516602 C293.26544508 257.54485893 293.28237793 252.29490456 293.30558491 247.0446558 C293.32031991 243.00660644 293.32119427 238.96864208 293.31807518 234.9305706 C293.31858849 232.99489073 293.32382805 231.05920612 293.3338871 229.12355232 C293.34622985 226.41620109 293.3394729 223.70953757 293.32788086 221.00219727 C293.3355246 220.20359283 293.34316833 219.4049884 293.3510437 218.58218384 C293.30798083 214.02966812 292.89321642 210.97322636 289.95556641 207.41992188 C286.86200827 205.49475674 284.49031721 205.16756563 280.87660217 205.15922546 C279.85180252 205.15214066 278.82700287 205.14505585 277.77114868 205.13775635 C276.65259491 205.14023376 275.53404114 205.14271118 274.3815918 205.14526367 C273.19910355 205.14015274 272.0166153 205.13504181 270.79829407 205.129776 C267.55858125 205.11825863 264.31902712 205.11580627 261.07929921 205.1183393 C258.3730378 205.11940964 255.66679994 205.11452403 252.96054357 205.10973388 C246.57515888 205.0986419 240.18983302 205.09819954 233.80444336 205.10424805 C227.22082449 205.11028851 220.6374193 205.09797444 214.05383688 205.07667798 C208.3976601 205.05905538 202.74155129 205.05306164 197.08534807 205.05631572 C193.70879235 205.05812769 190.33238906 205.05550125 186.95585823 205.04160118 C183.19004908 205.02928743 179.42473654 205.03599857 175.65893555 205.04760742 C174.54240601 205.03996368 173.42587646 205.03231995 172.2755127 205.02444458 C170.73408348 205.03496605 170.73408348 205.03496605 169.16151428 205.04570007 C167.82671571 205.04544846 167.82671571 205.04544846 166.46495152 205.04519176 C162.78308777 205.59500981 159.96117712 207.13183371 157.66023254 210.07911682 Z M329.95556641 481.41992188 C327.61033706 484.30505165 327.61033706 484.30505165 328.08056641 487.91992188 C328.62414641 491.39009322 328.62414641 491.39009322 330.6829071 493.11444187 C333.40615034 494.67875008 335.0643273 494.79934076 338.19311523 494.80760193 C339.25301666 494.81750656 340.31291809 494.82741119 341.40493774 494.83761597 C342.56246552 494.83311432 343.71999329 494.82861267 344.91259766 494.82397461 C346.13570648 494.83083786 347.35881531 494.83770111 348.61898804 494.84477234 C351.97034019 494.85993837 355.3211362 494.86153444 358.67248154 494.85582995 C361.47080401 494.85273953 364.2690761 494.8588288 367.0673914 494.8648687 C373.66850539 494.87891423 380.26948997 494.87735207 386.87060547 494.8659668 C393.68038817 494.85448117 400.48977725 494.86856827 407.29950809 494.89536327 C413.14761409 494.91751276 418.99559645 494.92415951 424.84374142 494.91828686 C428.33599716 494.91491474 431.82800048 494.91734905 435.32022095 494.93453789 C439.21314969 494.95286306 443.10559331 494.93882762 446.99853516 494.92163086 C448.73482681 494.93613281 448.73482681 494.93613281 450.50619507 494.95092773 C451.5660965 494.9410936 452.62599792 494.93125946 453.71801758 494.92112732 C454.63830246 494.92091804 455.55858734 494.92070875 456.50675964 494.92049313 C459.74909344 494.25771356 460.9441608 493.00210977 462.95556641 490.41992188 C463.62223307 486.91992188 463.62223307 486.91992188 462.95556641 483.41992188 C461.08848136 481.05494748 459.6349521 479.75961472 456.95556641 478.41992188 C455.34511026 478.32089789 453.73059989 478.28486471 452.11711121 478.27947998 C450.58403572 478.27091476 450.58403572 478.27091476 449.01998901 478.26217651 C447.89424469 478.26105865 446.76850037 478.2599408 445.60864258 478.25878906 C444.42644638 478.25382416 443.24425018 478.24885925 442.02622986 478.2437439 C438.77817644 478.23162253 435.53015905 478.22417362 432.28208709 478.21973324 C430.25282179 478.21680306 428.22356215 478.21269833 426.1942997 478.20822906 C419.8452638 478.19455165 413.49624083 478.18488658 407.14719123 478.18102717 C399.81822439 478.1765477 392.48944417 478.15900613 385.16053408 478.13002658 C379.49591508 478.1084056 373.83134856 478.09832265 368.16668874 478.09698606 C364.78338247 478.09593818 361.40025158 478.09003456 358.01698875 478.07216644 C354.24140595 478.05514783 350.46627922 478.05697631 346.69067383 478.06347656 C345.5710022 478.05426178 344.45133057 478.045047 343.29772949 478.03555298 C341.7519648 478.04390671 341.7519648 478.04390671 340.17497253 478.0524292 C339.28250918 478.05096264 338.39004583 478.04949608 337.47053814 478.04798508 C334.35268126 478.50908199 332.49731093 479.57946683 329.95556641 481.41992188 Z " fill="#ffffff" transform="translate(31.04443359375,-0.419921875)"/>
<path d="M0 0 C3.38939556 2.13679285 4.72582557 3.1774767 6 7 C6.09612279 8.6761113 6.1349246 10.35578122 6.14044189 12.03463745 C6.14900711 13.5950174 6.14900711 13.5950174 6.15774536 15.18692017 C6.15886322 16.32777069 6.15998108 17.46862122 6.16113281 18.64404297 C6.16609772 19.84589233 6.17106262 21.0477417 6.17617798 22.28601074 C6.1882865 25.58360055 6.1957446 28.88112695 6.20018864 32.17873144 C6.20312093 34.2393264 6.20722601 36.2999158 6.21169281 38.36050797 C6.22536419 44.80885253 6.23503285 51.25718439 6.2388947 57.70554245 C6.24337602 65.14712897 6.2609287 72.58853187 6.2898953 80.03006256 C6.31151438 85.78387289 6.32159908 91.53763157 6.32293582 97.29148209 C6.32398361 100.72731025 6.32988573 104.1629657 6.34775543 107.59875107 C6.36730299 111.43161695 6.36294623 115.26425341 6.35644531 119.09716797 C6.3656601 120.23397003 6.37487488 121.37077209 6.3843689 122.54202271 C6.37879974 123.58791565 6.37323059 124.63380859 6.36749268 125.71139526 C6.36895924 126.61730848 6.3704258 127.5232217 6.3719368 128.45658684 C5.91698002 131.56771502 4.82325453 133.45982855 3 136 C0.71273777 137.14363112 -0.82852427 137.26501932 -3.375 137.375 C-4.14585938 137.42398438 -4.91671875 137.47296875 -5.7109375 137.5234375 C-8 137 -8 137 -10.10972595 135.22644043 C-13.01828752 130.26192184 -12.56521669 125.50898736 -12.53344727 119.85351562 C-12.54637062 118.00641243 -12.54637062 118.00641243 -12.55955505 116.12199402 C-12.57835044 112.75189126 -12.5791163 109.38277281 -12.57023358 106.01269341 C-12.56511758 103.19700459 -12.57242108 100.38140366 -12.57970566 97.5657239 C-12.59669595 90.92280653 -12.59314724 84.28011893 -12.57641602 77.63720703 C-12.55948848 70.78814175 -12.57533915 63.93971352 -12.6076389 57.09071779 C-12.63434151 51.20518931 -12.64160928 45.31985907 -12.63312382 39.4342761 C-12.62819727 35.92127559 -12.63039497 32.40865849 -12.65091133 28.89570618 C-12.67269149 24.97904537 -12.65386208 21.06315185 -12.63110352 17.14648438 C-12.64279572 15.98477219 -12.65448792 14.82306 -12.66653442 13.62614441 C-12.57379547 5.79713916 -12.57379547 5.79713916 -9.67930603 1.77600098 C-6.13555331 -0.5730059 -4.17592439 -0.67113071 0 0 Z " fill="#ffffff" transform="translate(63,119)"/>
<path d="M0 0 C0.639375 -0.02449219 1.27875 -0.04898438 1.9375 -0.07421875 C5.42370949 1.2133018 7.37510574 3.45699923 9 6.6875 C9.66751952 10.39655173 9.60913635 13.99223717 9.5 17.75 C9.50386719 19.22049805 9.50386719 19.22049805 9.5078125 20.72070312 C9.38563659 29.718959 9.38563659 29.718959 6 33.6875 C2.51195905 36.01286063 1.09859246 36.02207898 -3 35.6875 C-6.34265205 34.48043121 -6.94704566 33.76693151 -9 30.6875 C-9.49252411 26.57855384 -9.41654419 22.44778053 -9.4375 18.3125 C-9.47037109 17.17554687 -9.50324219 16.03859375 -9.53710938 14.8671875 C-9.59093051 6.52980404 -9.59093051 6.52980404 -6.72265625 2.44140625 C-2.90548722 -0.01757351 -2.90548722 -0.01757351 0 0 Z " fill="#ffffff" transform="translate(60,67.3125)"/>
</svg>
