<?xml version="1.0" encoding="UTF-8"?>
<svg version="1.1" xmlns="http://www.w3.org/2000/svg" width="512" height="512">
<path d="M0 0 C0.77802506 -0.02788636 1.55605013 -0.05577272 2.35765171 -0.08450413 C5.82667745 -0.10881662 7.82769979 0.07303819 10.68788147 2.11106873 C12.30702024 4.49006042 12.7117705 5.57080021 12.72485352 8.40600586 C12.73746216 9.19362305 12.7500708 9.98124023 12.76306152 10.79272461 C12.7549646 11.63448242 12.74686768 12.47624023 12.73852539 13.34350586 C12.74235229 14.21620117 12.7461792 15.08889648 12.75012207 15.98803711 C12.75284029 17.83049678 12.74548533 19.6729951 12.72875977 21.51538086 C12.70734787 24.3339652 12.7285634 27.15000071 12.75415039 29.96850586 C12.7515071 31.76017815 12.74638208 33.55184885 12.73852539 35.34350586 C12.74662231 36.18526367 12.75471924 37.02702148 12.76306152 37.89428711 C12.74414856 39.07571289 12.74414856 39.07571289 12.72485352 40.28100586 C12.72167114 40.9706543 12.71848877 41.66030273 12.71520996 42.37084961 C11.95286448 45.33155688 10.62176826 46.51275315 8.20727539 48.34350586 C5.44842529 48.82452393 5.44842529 48.82452393 2.24536133 48.79760742 C1.04441833 48.7973053 -0.15652466 48.79700317 -1.39385986 48.79669189 C-2.68564148 48.77604675 -3.9774231 48.75540161 -5.30834961 48.73413086 C-6.6478389 48.72666657 -7.98733913 48.72097452 -9.32684326 48.71697998 C-12.84523897 48.70173799 -16.36296976 48.66247004 -19.88110352 48.61816406 C-23.47394657 48.57717952 -27.0669007 48.55874283 -30.65991211 48.53881836 C-37.70476938 48.49809664 -44.74780294 48.41980465 -51.79272461 48.34350586 C-51.79272461 58.90350586 -51.79272461 69.46350586 -51.79272461 80.34350586 C-47.83272461 80.34350586 -43.87272461 80.34350586 -39.79272461 80.34350586 C-35.29244913 84.84378134 -35.29244913 84.84378134 -34.66772461 88.48413086 C-34.52052979 89.2958374 -34.37333496 90.10754395 -34.22167969 90.94384766 C-34.08012451 91.81823486 -33.93856934 92.69262207 -33.79272461 93.59350586 C-33.63247803 94.50720947 -33.47223145 95.42091309 -33.30712891 96.36230469 C-32.78706301 99.35363076 -32.29025912 102.34835759 -31.79272461 105.34350586 C-31.42549477 107.46742197 -31.05699365 109.59111865 -30.68725586 111.71459961 C-29.99175394 115.76014367 -29.29668216 119.80569348 -28.62475586 123.85522461 C-28.47159912 124.76908936 -28.31844238 125.6829541 -28.16064453 126.62451172 C-27.79171977 129.35093182 -27.68818211 132.01806491 -27.58178711 134.76538086 C-27.21292153 138.6793899 -27.03763978 139.11425981 -23.98413086 141.97241211 C-22.7919223 142.6486348 -21.58074305 143.29221198 -20.35522461 143.90600586 C-19.06714705 144.63952403 -17.78330144 145.38052047 -16.50366211 146.12866211 C-15.87041016 146.49362793 -15.2371582 146.85859375 -14.5847168 147.23461914 C-10.1491006 149.97938328 -6.51577235 153.72828063 -2.79272461 157.34350586 C-2.04635742 158.01639648 -1.29999023 158.68928711 -0.53100586 159.38256836 C14.59918798 173.48295843 22.71321339 192.50681283 27.20727539 212.34350586 C27.39805664 213.11436523 27.58883789 213.88522461 27.78540039 214.67944336 C31.08906546 235.54147651 26.24241553 257.69002297 23.20727539 278.34350586 C24.29266602 277.99416992 25.37805664 277.64483398 26.49633789 277.28491211 C27.941582 276.82506171 29.38689836 276.36543831 30.83227539 275.90600586 C31.90155273 275.56085938 31.90155273 275.56085938 32.99243164 275.20874023 C40.32605317 272.8875481 47.16907115 272.14066404 54.83227539 272.09350586 C55.67790039 272.07288086 56.52352539 272.05225586 57.39477539 272.03100586 C63.54158231 271.99222474 63.54158231 271.99222474 66.74633789 273.68334961 C68.88707054 276.11600035 68.95682609 278.15027728 69.20727539 281.34350586 C69.12477539 282.37475586 69.04227539 283.40600586 68.95727539 284.46850586 C68.91201433 287.47358998 68.91201433 287.47358998 71.20336914 289.38256836 C74.8923035 291.79068936 78.25830755 292.66428499 82.51977539 293.59350586 C83.2603418 293.76624023 84.0009082 293.93897461 84.76391602 294.11694336 C86.57563894 294.53773062 88.39111871 294.94228676 90.20727539 295.34350586 C90.06741211 294.35511719 89.92754883 293.36672852 89.78344727 292.34838867 C89.5808937 290.91448064 89.37842826 289.48056017 89.17602539 288.04663086 C89.06445099 287.25629959 88.95287659 286.46596832 88.83792114 285.65168762 C88.18977954 281.05053294 87.54826837 276.44854744 86.91577148 271.84521484 C86.63541852 269.80687332 86.35497974 267.76854359 86.07446289 265.73022461 C85.85577042 264.1403196 85.85577042 264.1403196 85.63265991 262.51829529 C84.65856318 255.48066567 83.6344112 248.45179853 82.58508301 241.42501831 C78.89314188 216.59455179 75.43326733 191.99087776 75.45727539 166.84350586 C75.45383118 165.91063751 75.45038696 164.97776917 75.44683838 164.01663208 C75.44793969 161.42631162 75.48249303 158.83948569 75.53540039 156.24975586 C75.54260605 155.12300697 75.54260605 155.12300697 75.54995728 153.97349548 C75.66605587 150.79337438 75.91051478 148.74726635 77.81658936 146.15393829 C81.02405709 143.72496873 83.03557309 143.84048024 87.03930664 143.83557129 C87.72593887 143.82933133 88.41257111 143.82309136 89.12001038 143.81666231 C91.4202816 143.80071018 93.71949636 143.81334418 96.01977539 143.82592773 C97.66903298 143.82050756 99.31828573 143.81338549 100.9675293 143.8046875 C105.44687755 143.78643861 109.92585764 143.79352806 114.4052124 143.80620384 C119.09054566 143.81632343 123.77584716 143.80694106 128.46118164 143.80065918 C136.32972886 143.79337973 144.19812596 143.80297826 152.06665039 143.82202148 C161.1667331 143.84379082 170.26645735 143.83673965 179.36653137 143.81471586 C187.17640758 143.79657032 194.98617581 143.79399939 202.79606628 143.80447054 C207.46200436 143.81071013 212.12777389 143.81152834 216.79370117 143.79832458 C221.18016356 143.78677897 225.56616333 143.79476799 229.95257568 143.81790161 C231.5634484 143.82319563 233.17435997 143.82166306 234.78521729 143.81285095 C236.9824204 143.80193846 239.17813613 143.81560446 241.37524414 143.83557129 C243.22025513 143.83783344 243.22025513 143.83783344 245.10253906 143.8401413 C248.20727539 144.34350586 248.20727539 144.34350586 250.59504032 145.86777306 C252.84124936 149.31703024 252.83075177 152.47293394 252.83506775 156.46316528 C252.84824716 157.28581713 252.86142658 158.10846899 252.87500536 158.95604968 C252.90483248 161.71236098 252.89613868 164.46649697 252.87890625 167.22290039 C252.87689772 168.18869467 252.87488918 169.15448895 252.87281978 170.14954972 C252.75075861 194.55722402 249.42287711 218.48170661 245.98040509 242.60291815 C245.09055954 248.89303865 244.2387358 255.18831113 243.38328552 261.48318481 C241.94538432 272.03250724 240.49028289 282.57927222 239.01757812 293.1237793 C238.92513138 293.78574268 238.83268463 294.44770605 238.73743647 295.12972893 C238.36298134 297.81073992 237.98847111 300.4917432 237.61388863 303.1727364 C236.58151228 310.56315382 235.55337372 317.95415797 234.52734375 325.34545898 C234.38929656 326.33984621 234.38929656 326.33984621 234.24846054 327.35432206 C232.69824862 338.52521981 231.16498179 349.69839739 229.6413855 360.87295926 C228.62919907 368.28615214 227.59597137 375.69599504 226.54619998 383.103953 C223.31178864 406.03016297 220.34100512 428.64139558 220.56311131 451.8368206 C220.61126487 460.64540266 220.25196414 466.72789683 214.24243164 473.58569336 C213.59145508 474.12452148 212.94047852 474.66334961 212.26977539 475.21850586 C211.62137695 475.77280273 210.97297852 476.32709961 210.30493164 476.89819336 C206.00705281 479.8594879 202.29123258 480.59391754 197.11706829 480.60077477 C195.27030295 480.6104481 195.27030295 480.6104481 193.38622922 480.62031686 C192.02300392 480.61737469 190.65977903 480.61423926 189.29655457 480.6109314 C187.84600869 480.61466809 186.39546484 480.61926968 184.94492418 480.62466204 C180.95828877 480.63690518 176.9717372 480.63663003 172.98508728 480.63427329 C168.68571863 480.63386546 164.38637697 480.64490109 160.08702087 480.65438843 C151.66347197 480.67100661 143.23995106 480.67649834 134.81638714 480.67761318 C127.96969769 480.67856327 121.12301748 480.68267161 114.27633095 480.68901443 C94.86758231 480.7066291 75.45885579 480.71585296 56.0500991 480.71435349 C55.00360546 480.71427357 53.95711182 480.71419366 52.87890625 480.71411133 C51.83113584 480.71402957 50.78336543 480.71394781 49.70384441 480.71386357 C32.72196369 480.71305061 15.74017166 480.73219016 -1.2416834 480.76038806 C-18.67571797 480.78910852 -36.10970928 480.80292882 -53.54376811 480.80120051 C-63.3327987 480.80053632 -73.12173632 480.80604143 -82.91074562 480.82755661 C-91.24522039 480.84575737 -99.57956006 480.85012484 -107.91404609 480.83653776 C-112.16620103 480.83000251 -116.41809669 480.8299109 -120.67022705 480.84724426 C-124.5645117 480.8629556 -128.45833106 480.8601315 -132.35260423 480.842676 C-133.75972311 480.8396018 -135.16687655 480.84325441 -136.57395468 480.85439615 C-145.60504043 480.92115872 -151.80758867 480.38455411 -158.99975586 474.55444336 C-159.52956055 473.94858398 -160.05936523 473.34272461 -160.60522461 472.71850586 C-161.14791992 472.12811523 -161.69061523 471.53772461 -162.24975586 470.92944336 C-166.15790897 464.37957663 -167.28690111 456.48683029 -168.25444031 449.01960754 C-168.3754266 448.13707689 -168.49641289 447.25454625 -168.62106544 446.34527224 C-169.02025882 443.41834702 -169.40787643 440.49001339 -169.79541016 437.56152344 C-170.08090771 435.44952166 -170.36707891 433.33761086 -170.65386963 431.2257843 C-171.42813293 425.50705259 -172.19186472 419.78696239 -172.9528501 414.06645036 C-173.59120051 409.27351318 -174.23416918 404.48119964 -174.87694579 399.6888544 C-176.39551885 388.36456894 -177.9049673 377.03909177 -179.40917969 365.71289062 C-180.95431382 354.08007572 -182.51658916 342.44965279 -184.08715409 330.82024652 C-185.43989427 320.79827789 -186.78082532 310.77477426 -188.11277992 300.75002211 C-188.9061929 294.77984398 -189.70405628 288.81035112 -190.51373863 282.84235573 C-191.27665016 277.21582754 -192.02463563 271.58749948 -192.76196289 265.9575634 C-193.03247778 263.91050669 -193.30795183 261.86409704 -193.58921242 259.81848907 C-195.04674248 249.19438589 -196.02319894 238.73478644 -196.05769348 228.0019989 C-196.06149039 227.06695803 -196.0652873 226.13191717 -196.06919926 225.16854173 C-195.98646592 216.51806257 -194.48338203 208.54537192 -191.79272461 200.34350586 C-191.58373535 199.70509766 -191.37474609 199.06668945 -191.15942383 198.40893555 C-185.83835741 182.76061589 -177.34566588 170.03501315 -165.79272461 158.34350586 C-165.14948242 157.62807617 -164.50624023 156.91264648 -163.84350586 156.17553711 C-157.54648157 149.33213327 -149.11024138 143.50226424 -140.79272461 139.34350586 C-140.2543764 136.27212042 -139.83864953 133.25011979 -139.48022461 130.15600586 C-138.34405922 121.19359482 -137.06654665 112.2606733 -135.61611938 103.34408569 C-135.29735959 101.37217868 -134.98966094 99.39849391 -134.68212891 97.42480469 C-134.48143799 96.20172607 -134.28074707 94.97864746 -134.07397461 93.71850586 C-133.89930664 92.63311523 -133.72463867 91.54772461 -133.54467773 90.42944336 C-132.72222112 87.05416688 -131.53338446 84.34509883 -129.79272461 81.34350586 C-125.60809666 79.25119188 -120.47128089 80.34350586 -115.79272461 80.34350586 C-115.79272461 69.78350586 -115.79272461 59.22350586 -115.79272461 48.34350586 C-119.75272461 48.34350586 -123.71272461 48.34350586 -127.79272461 48.34350586 C-131.79272461 44.34350586 -131.79272461 44.34350586 -132.31518555 42.39941406 C-132.19092777 35.65365078 -130.32817291 29.84030195 -128.04272461 23.53100586 C-127.69467773 22.50813477 -127.34663086 21.48526367 -126.98803711 20.43139648 C-123.91402658 11.73877782 -123.91402658 11.73877782 -119.79272461 8.34350586 C-117.02035334 7.47228497 -114.34498223 7.15403654 -111.45335388 6.95750427 C-110.59182709 6.89723053 -109.73030029 6.83695679 -108.84266663 6.77485657 C-107.90507004 6.71299667 -106.96747345 6.65113678 -106.00146484 6.58740234 C-104.51018066 6.48477081 -104.51018066 6.48477081 -102.98876953 6.38006592 C-99.69320088 6.15440461 -96.39729414 5.93422913 -93.10131836 5.71459961 C-90.79841713 5.55922313 -88.49552521 5.40370853 -86.19264221 5.24806213 C-81.35320456 4.92194031 -76.5135815 4.59874469 -71.67382812 4.27734375 C-65.52103198 3.8683411 -59.36888744 3.45031832 -53.21687222 3.02975368 C-48.45112582 2.70532408 -43.68499769 2.38679594 -38.91874886 2.06984138 C-36.6539977 1.91836692 -34.38937799 1.76491203 -32.12490654 1.60931206 C-21.426362 0.87653128 -10.72366696 0.201133 0 0 Z M-13.90840149 17.56455994 C-14.66933105 17.6135997 -15.43026062 17.66263947 -16.21424866 17.71316528 C-17.43705788 17.79496536 -17.43705788 17.79496536 -18.68457031 17.87841797 C-19.55856476 17.9353331 -20.4325592 17.99224823 -21.33303833 18.05088806 C-24.21166118 18.23889573 -27.09008511 18.42977443 -29.96850586 18.62084961 C-31.9786048 18.753089 -33.98871132 18.88521309 -35.99882507 19.01722717 C-40.20942634 19.29421698 -44.4199302 19.5726341 -48.63037109 19.85205078 C-54.00994749 20.20893609 -59.38975173 20.56224355 -64.7696352 20.9144659 C-68.92115435 21.18667528 -73.07254395 21.4608208 -77.22389793 21.73553658 C-79.20646421 21.86649778 -81.18907009 21.99686088 -83.17171669 22.12660027 C-85.95217708 22.30883479 -88.73245177 22.49368937 -91.51269531 22.67919922 C-92.32182877 22.73170837 -93.13096222 22.78421753 -93.96461487 22.83831787 C-99.26165474 23.19535741 -104.51944044 23.72674544 -109.79272461 24.34350586 C-110.45272461 26.98350586 -111.11272461 29.62350586 -111.79272461 32.34350586 C-76.15272461 32.34350586 -40.51272461 32.34350586 -3.79272461 32.34350586 C-3.79272461 27.39350586 -3.79272461 22.44350586 -3.79272461 17.34350586 C-8.8667641 17.34243656 -8.8667641 17.34243656 -13.90840149 17.56455994 Z M-99.79272461 48.34350586 C-99.79272461 58.90350586 -99.79272461 69.46350586 -99.79272461 80.34350586 C-89.23272461 80.34350586 -78.67272461 80.34350586 -67.79272461 80.34350586 C-67.79272461 69.78350586 -67.79272461 59.22350586 -67.79272461 48.34350586 C-78.35272461 48.34350586 -88.91272461 48.34350586 -99.79272461 48.34350586 Z M-116.79272461 96.34350586 C-120.20988978 112.26501891 -120.20988978 112.26501891 -121.79272461 128.34350586 C-96.71272461 128.34350586 -71.63272461 128.34350586 -45.79272461 128.34350586 C-47.31952227 117.6559222 -48.86146135 106.96545379 -50.79272461 96.34350586 C-72.57272461 96.34350586 -94.35272461 96.34350586 -116.79272461 96.34350586 Z M-151.79272461 168.34350586 C-152.42436523 168.89393555 -153.05600586 169.44436523 -153.70678711 170.01147461 C-167.32635273 182.60490857 -177.54618085 202.96916007 -178.95942557 221.53325582 C-179.04068351 223.85208027 -179.06328788 226.16184833 -179.05378723 228.48208618 C-179.05085059 229.34668414 -179.04791395 230.21128209 -179.04488832 231.10207999 C-178.9030505 241.31398338 -177.56186742 251.33419112 -176.17822266 261.4387207 C-175.89629102 263.56969575 -175.6154815 265.70081949 -175.33569336 267.83207703 C-174.58108357 273.5538497 -173.81022702 279.27331885 -173.03557563 284.99240828 C-172.22399568 291.00089377 -171.42574336 297.01115251 -170.6254425 303.02114868 C-169.28201716 313.09372713 -167.92792547 323.16482773 -166.56738281 333.23510742 C-164.99539575 344.87144629 -163.44063558 356.50999039 -161.89488763 368.14984167 C-160.4034339 379.37774407 -158.89980518 390.60398368 -157.39063454 401.82951736 C-156.74994159 406.59679053 -156.11353799 411.36460717 -155.48059654 416.1329155 C-154.73613984 421.73717442 -153.98104403 427.33989901 -153.21768951 432.94161415 C-152.93944526 434.99622868 -152.66486764 437.0513436 -152.39422798 439.10697365 C-152.02427307 441.91224204 -151.6410647 444.71538971 -151.25444031 447.5184021 C-151.15034133 448.33161844 -151.04624236 449.14483477 -150.93898886 449.98269403 C-150.28404529 454.60750372 -149.2774326 458.29164169 -146.79272461 462.34350586 C-143.20307977 464.44970479 -140.00715625 464.58844892 -135.90087891 464.57055664 C-134.74005295 464.57040558 -133.57922699 464.57025452 -132.38322449 464.57009888 C-131.14035172 464.55977631 -129.89747894 464.54945374 -128.61694336 464.53881836 C-127.33664749 464.53598846 -126.05635162 464.53315857 -124.73725891 464.53024292 C-121.34569386 464.52263366 -117.95430211 464.50300879 -114.56280518 464.48083496 C-111.09715112 464.46031792 -107.63146886 464.45122872 -104.16577148 464.44116211 C-97.37468095 464.41912078 -90.58371849 464.38565715 -83.79272461 464.34350586 C-83.78907898 463.15857544 -83.78543335 461.97364502 -83.78167725 460.75280762 C-83.74469169 449.57086593 -83.6868798 438.38919872 -83.60882187 427.20746613 C-83.56935942 421.45918151 -83.53716472 415.71104981 -83.52172852 409.96264648 C-83.50655408 404.41222721 -83.47209386 398.86222836 -83.42441559 393.31199646 C-83.40961004 391.19741984 -83.40168407 389.08278319 -83.40084076 386.96815491 C-83.39846693 383.99972015 -83.37135295 381.03244333 -83.33862305 378.06420898 C-83.34365341 377.19530029 -83.34868378 376.3263916 -83.35386658 375.43115234 C-83.2396455 368.7093473 -81.48122077 363.44515622 -77.03881836 358.32006836 C-73.11665064 355.38903158 -69.87726061 353.95763503 -65.01538086 353.17944336 C-64.03448486 353.01750488 -63.05358887 352.85556641 -62.04296875 352.6887207 C-60.9290979 352.51783936 -60.9290979 352.51783936 -59.79272461 352.34350586 C-59.77814209 351.51101318 -59.76355957 350.67852051 -59.74853516 349.82080078 C-59.68743831 346.72860933 -59.61327905 343.63708504 -59.53027344 340.54541016 C-59.48071142 338.55059956 -59.44621328 336.55543329 -59.41186523 334.56030273 C-59.35869141 332.67988281 -59.35869141 332.67988281 -59.30444336 330.76147461 C-59.27825928 329.60413818 -59.2520752 328.44680176 -59.22509766 327.25439453 C-58.79272461 324.34350586 -58.79272461 324.34350586 -57.5168457 322.49291992 C-55.49461215 321.14476422 -54.10307934 320.81889227 -51.69506836 320.53491211 C-50.89866943 320.43041748 -50.10227051 320.32592285 -49.28173828 320.21826172 C-48.43973877 320.11521729 -47.59773926 320.01217285 -46.73022461 319.90600586 C-28.34900745 317.25904197 -16.24866916 307.59902856 -2.53491211 295.69116211 C0.20727539 293.34350586 0.20727539 293.34350586 2.31011963 291.99082947 C4.7027468 289.91328196 4.87662371 288.7436819 5.30395508 285.63867188 C5.44379822 284.68239395 5.58364136 283.72611603 5.72772217 282.74085999 C5.86019348 281.70352219 5.99266479 280.66618439 6.12915039 279.59741211 C6.27886292 278.51709213 6.42857544 277.43677216 6.58282471 276.32371521 C6.89698203 274.02571448 7.20238247 271.7265024 7.49975586 269.42626953 C7.94828333 265.97519293 8.42884952 262.52979154 8.91430664 259.08374023 C12.76595866 230.88019663 12.99363626 204.86207073 -4.51611328 180.93896484 C-6.52638709 178.32818469 -8.63149589 175.8318771 -10.79272461 173.34350586 C-11.43854492 172.59713867 -12.08436523 171.85077148 -12.74975586 171.08178711 C-27.66186737 155.10228236 -49.8923319 145.63517176 -71.55444336 144.43334961 C-73.15739258 144.38887695 -73.15739258 144.38887695 -74.79272461 144.34350586 C-75.44966309 144.32304199 -76.10660156 144.30257812 -76.78344727 144.28149414 C-105.05735587 143.50590064 -130.34433507 148.8546868 -151.79272461 168.34350586 Z M92.20727539 160.34350586 C92.20727539 165.62350586 92.20727539 170.90350586 92.20727539 176.34350586 C139.72727539 176.34350586 187.24727539 176.34350586 236.20727539 176.34350586 C236.20727539 171.06350586 236.20727539 165.78350586 236.20727539 160.34350586 C188.68727539 160.34350586 141.16727539 160.34350586 92.20727539 160.34350586 Z M94.20727539 192.34350586 C95.04958717 204.24426836 95.04958717 204.24426836 96.23193359 216.09936523 C96.32984695 216.9695932 96.42776031 217.83982117 96.52864075 218.73641968 C97.42494507 226.62537997 98.38288566 234.50696176 99.36147785 242.38610077 C100.01528579 247.65695572 100.64719364 252.92854361 101.22998047 258.20776367 C101.79854252 263.35290902 102.42091964 268.48888715 103.08150291 273.6230011 C103.32259515 275.56950361 103.54461771 277.51847083 103.7467289 279.46940613 C104.45363918 290.17532137 104.45363918 290.17532137 109.95932007 298.74926758 C113.08477137 300.37634991 113.08477137 300.37634991 116.27507019 301.31750488 C122.06276312 303.34266281 125.65281384 308.17303733 128.28637695 313.54443359 C131.64296164 321.59018809 131.86861522 329.41550501 131.95727539 338.03100586 C131.9855075 339.42622393 132.01544471 340.82140857 132.04711914 342.21655273 C132.11720304 345.59226033 132.17020585 348.96730175 132.20727539 352.34350586 C133.32114624 352.51438721 133.32114624 352.51438721 134.45751953 352.6887207 C135.43841553 352.85065918 136.41931152 353.01259766 137.42993164 353.17944336 C138.39938721 353.33461426 139.36884277 353.48978516 140.36767578 353.6496582 C144.8105175 354.73525327 148.22039543 356.89761762 151.20727539 360.34350586 C155.18123649 366.9069815 155.80804599 372.0307617 155.81665039 379.62475586 C155.83228027 380.56029297 155.84791016 381.49583008 155.86401367 382.4597168 C155.91621507 385.92072577 155.93481113 389.38217613 155.95727539 392.84350586 C156.03977539 400.59850586 156.12227539 408.35350586 156.20727539 416.34350586 C172.37727539 416.34350586 188.54727539 416.34350586 205.20727539 416.34350586 C208.99255772 388.02401195 212.77459282 359.70409061 216.55066681 331.38336754 C218.30402661 318.23388986 220.05885706 305.08461156 221.81713867 291.93579102 C223.3494687 280.47665829 224.87905066 269.0171627 226.40531969 257.55722106 C227.21372468 251.48807442 228.02351417 245.41911971 228.83659363 239.35059738 C229.60166385 233.64006857 230.3630619 227.92906221 231.12163353 222.21766663 C231.40084041 220.12045333 231.68139408 218.02341883 231.96338844 215.92657852 C232.34799242 213.06523984 232.72775949 210.20329915 233.10632324 207.34115601 C233.21916074 206.51040633 233.33199824 205.67965665 233.44825506 204.82373273 C233.54927353 204.05240621 233.65029201 203.28107968 233.75437164 202.48637962 C233.84246676 201.82642569 233.93056188 201.16647176 234.02132654 200.48651922 C234.25602862 197.78163725 234.20727539 195.05855126 234.20727539 192.34350586 C188.00727539 192.34350586 141.80727539 192.34350586 94.20727539 192.34350586 Z M-4.79272461 319.34350586 C-4.79272461 319.67350586 -4.79272461 320.00350586 -4.79272461 320.34350586 C33.81727539 320.34350586 72.42727539 320.34350586 112.20727539 320.34350586 C110.29672295 316.52240097 109.7147183 315.38951422 106.20727539 313.34350586 C101.74174597 312.40613525 97.38405166 312.19258007 92.83227539 312.03100586 C80.2648923 311.36670895 65.54587582 309.22247829 56.56274414 299.57788086 C54.17897215 296.4178373 52.45656381 293.09137111 51.20727539 289.34350586 C28.94013165 289.34350586 10.8644893 305.2015062 -4.79272461 319.34350586 Z M-43.79272461 336.34350586 C-43.79272461 341.62350586 -43.79272461 346.90350586 -43.79272461 352.34350586 C9.00727539 352.34350586 61.80727539 352.34350586 116.20727539 352.34350586 C116.20727539 347.06350586 116.20727539 341.78350586 116.20727539 336.34350586 C63.40727539 336.34350586 10.60727539 336.34350586 -43.79272461 336.34350586 Z M-65.79272461 371.34350586 C-68.48835656 374.86798169 -68.08152821 378.99456945 -68.06738281 383.24560547 C-68.07249374 384.0379509 -68.07760468 384.83029633 -68.08287048 385.64665222 C-68.09675863 388.26312841 -68.09581033 390.87934096 -68.09350586 393.49584961 C-68.09739318 395.31661578 -68.10172792 397.13738105 -68.10649109 398.95814514 C-68.11395159 402.77372172 -68.11366322 406.58920577 -68.10839844 410.40478516 C-68.10260356 415.29189748 -68.11953601 420.17863084 -68.14274311 425.0656805 C-68.15748204 428.82579255 -68.15835194 432.58581336 -68.15523338 436.34594917 C-68.1557465 438.1476574 -68.16098245 439.94937075 -68.1710453 441.75105095 C-68.18339575 444.27162102 -68.1766267 446.79145327 -68.16503906 449.31201172 C-68.1726828 450.05451172 -68.18032654 450.79701172 -68.1882019 451.56201172 C-68.14326711 455.98900823 -67.61124347 458.87810973 -64.79272461 462.34350586 C-61.12457373 464.8719002 -57.26789475 464.62610599 -52.98036194 464.60420227 C-52.18826291 464.60802782 -51.39616388 464.61185336 -50.58006185 464.61579484 C-47.92309893 464.62612225 -45.26635222 464.6221332 -42.609375 464.61816406 C-40.7055898 464.62251067 -38.80180635 464.62769365 -36.89802551 464.63365173 C-31.72451827 464.64705824 -26.551084 464.64761858 -21.37756276 464.64508843 C-17.06081217 464.64401988 -12.74407642 464.64889912 -8.427329 464.65369385 C1.75516431 464.66479469 11.93762074 464.66522316 22.12011719 464.65917969 C32.62997824 464.65313791 43.13970548 464.6654548 53.6495437 464.68674976 C62.66874482 464.70435346 71.68790329 464.71036907 80.70712095 464.70711201 C86.09574334 464.7052971 91.48427027 464.7079561 96.87287712 464.72182655 C101.93966565 464.73438029 107.00624524 464.73248405 112.07303047 464.71941566 C113.93343806 464.717045 115.79386024 464.71980203 117.6542511 464.72803879 C120.19238772 464.73846661 122.72981812 464.73043776 125.26792908 464.71772766 C126.374256 464.72878909 126.374256 464.72878909 127.50293297 464.74007398 C131.91301731 464.69356002 134.68050882 464.02055455 138.20727539 461.34350586 C140.90290734 457.81903003 140.49607899 453.69244227 140.48193359 449.44140625 C140.48704453 448.64906082 140.49215546 447.85671539 140.49742126 447.0403595 C140.51130941 444.42388331 140.51036112 441.80767075 140.50805664 439.19116211 C140.51194396 437.37039594 140.5162787 435.54963067 140.52104187 433.72886658 C140.52850237 429.91329 140.528214 426.09780595 140.52294922 422.28222656 C140.51715434 417.39511424 140.53408679 412.50838088 140.55729389 407.62133121 C140.57203282 403.86121917 140.57290272 400.10119836 140.56978416 396.34106255 C140.57029728 394.53935432 140.57553323 392.73764097 140.58559608 390.93596077 C140.59794654 388.4153907 140.59117748 385.89555845 140.57958984 383.375 C140.58723358 382.6325 140.59487732 381.89 140.60275269 381.125 C140.55781789 376.69800348 140.02579425 373.80890199 137.20727539 370.34350586 C133.53912451 367.81511152 129.68244553 368.06090573 125.39491272 368.08280945 C124.60281369 368.0789839 123.81071466 368.07515835 122.99461263 368.07121688 C120.33764971 368.06088947 117.680903 368.06487852 115.02392578 368.06884766 C113.12014058 368.06450105 111.21635713 368.05931807 109.31257629 368.05335999 C104.13906905 368.03995347 98.96563478 368.03939314 93.79211354 368.04192328 C89.47536295 368.04299184 85.1586272 368.0381126 80.84187979 368.03331786 C70.65938647 368.02221703 60.47693004 368.02178856 50.29443359 368.02783203 C39.78457254 368.03387381 29.2748453 368.02155692 18.76500708 368.00026196 C9.74580597 367.98265826 0.72664749 367.97664265 -8.29257017 367.9798997 C-13.68119256 367.98171462 -19.06971948 367.97905562 -24.45832634 367.96518517 C-29.52511487 367.95263143 -34.59169446 367.95452767 -39.65847969 367.96759605 C-41.51888728 367.96996671 -43.37930946 367.96720969 -45.23970032 367.95897293 C-47.77783693 367.94854511 -50.31526734 367.95657396 -52.8533783 367.96928406 C-53.59092958 367.96190977 -54.32848086 367.95453549 -55.08838218 367.94693774 C-59.49846653 367.9934517 -62.26595804 368.66645717 -65.79272461 371.34350586 Z M156.20727539 432.34350586 C156.20727539 442.90350586 156.20727539 453.46350586 156.20727539 464.34350586 C161.79449393 464.41251542 167.38022357 464.47220707 172.9675293 464.50830078 C174.86666892 464.52335277 176.76577398 464.54379902 178.66479492 464.56982422 C181.4003962 464.60636578 184.13553639 464.62326824 186.87133789 464.63647461 C187.71532135 464.65195847 188.55930481 464.66744232 189.42886353 464.68339539 C194.39087834 464.68480017 198.01511196 464.302988 202.20727539 461.34350586 C205.6928381 453.52712656 205.6928381 453.52712656 204.20727539 432.34350586 C188.36727539 432.34350586 172.52727539 432.34350586 156.20727539 432.34350586 Z " fill="#ffffff" transform="translate(235.792724609375,15.656494140625)"/>
<path d="M0 0 C1.00853027 -0.00700928 2.01706055 -0.01401855 3.05615234 -0.02124023 C6.39188114 -0.03885406 9.72676248 -0.02718497 13.0625 -0.01367188 C15.37890791 -0.0163658 17.69531472 -0.02024739 20.01171875 -0.02526855 C24.86729698 -0.03116822 29.72258096 -0.02258526 34.578125 -0.00390625 C40.80614646 0.01888316 47.03347845 0.00576265 53.26147461 -0.01819611 C58.04497485 -0.0326412 62.82831127 -0.02805393 67.61181641 -0.01768494 C69.90836671 -0.0150141 72.20493183 -0.01829988 74.50146484 -0.02760315 C77.7097114 -0.03774714 80.91683706 -0.02229671 84.125 0 C85.55271729 -0.01214539 85.55271729 -0.01214539 87.00927734 -0.02453613 C93.35603861 0.05729722 93.35603861 0.05729722 96.65124512 2.20422363 C98.37656069 5.03239208 98.56927631 6.74319837 98.58007812 10.04882812 C98.59268677 11.15677734 98.60529541 12.26472656 98.61828613 13.40625 C98.61018921 14.59798828 98.60209229 15.78972656 98.59375 17.01757812 C98.59949036 18.85932617 98.59949036 18.85932617 98.60534668 20.73828125 C98.60806842 23.33399272 98.60068911 25.92973149 98.58398438 28.52539062 C98.56258075 32.50257412 98.58377963 36.47795094 98.609375 40.45507812 C98.60673177 42.97591545 98.60160691 45.49675166 98.59375 48.01757812 C98.60184692 49.20931641 98.60994385 50.40105469 98.61828613 51.62890625 C98.60567749 52.73685547 98.59306885 53.84480469 98.58007812 54.98632812 C98.57689575 55.96021484 98.57371338 56.93410156 98.57043457 57.9375 C98.0625 60.51757812 98.0625 60.51757812 96.65124512 62.83093262 C92.63710617 65.44626519 88.81899733 65.07508741 84.125 65.03515625 C83.11646973 65.04216553 82.10793945 65.0491748 81.06884766 65.05639648 C77.73311886 65.07401031 74.39823752 65.06234122 71.0625 65.04882812 C68.74609209 65.05152205 66.42968528 65.05540364 64.11328125 65.0604248 C59.25770302 65.06632447 54.40241904 65.05774151 49.546875 65.0390625 C43.31885354 65.01627309 37.09152155 65.0293936 30.86352539 65.05335236 C26.08002515 65.06779745 21.29668873 65.06321018 16.51318359 65.05284119 C14.21663329 65.05017035 11.92006817 65.05345613 9.62353516 65.0627594 C6.4152886 65.07290339 3.20816294 65.05745296 0 65.03515625 C-1.42771729 65.04730164 -1.42771729 65.04730164 -2.88427734 65.05969238 C-9.23103861 64.97785903 -9.23103861 64.97785903 -12.52624512 62.83093262 C-14.25156069 60.00276417 -14.44427631 58.29195788 -14.45507812 54.98632812 C-14.46768677 53.87837891 -14.48029541 52.77042969 -14.49328613 51.62890625 C-14.48518921 50.43716797 -14.47709229 49.24542969 -14.46875 48.01757812 C-14.4725769 46.78974609 -14.47640381 45.56191406 -14.48034668 44.296875 C-14.48306842 41.70116353 -14.47568911 39.10542476 -14.45898438 36.50976562 C-14.43758075 32.53258213 -14.45877963 28.55720531 -14.484375 24.58007812 C-14.48173177 22.0592408 -14.47660691 19.53840459 -14.46875 17.01757812 C-14.47684692 15.82583984 -14.48494385 14.63410156 -14.49328613 13.40625 C-14.48067749 12.29830078 -14.46806885 11.19035156 -14.45507812 10.04882812 C-14.45189575 9.07494141 -14.44871338 8.10105469 -14.44543457 7.09765625 C-13.9375 4.51757812 -13.9375 4.51757812 -12.52624512 2.20422363 C-8.51210617 -0.41110894 -4.69399733 -0.03993116 0 0 Z M2.0625 16.51757812 C2.0625 27.07757813 2.0625 37.63757813 2.0625 48.51757812 C28.4625 48.51757812 54.8625 48.51757812 82.0625 48.51757812 C82.0625 37.95757812 82.0625 27.39757812 82.0625 16.51757812 C55.6625 16.51757812 29.2625 16.51757812 2.0625 16.51757812 Z " fill="#ffffff" transform="translate(109.9375,215.482421875)"/>
<path d="M0 0 C3.50736096 2.91748662 6.67003331 6.33225413 8.71875 10.4296875 C9.21631886 15.87847441 9.47960647 20.78623752 7.15625 25.8046875 C6.351875 26.6709375 5.5475 27.5371875 4.71875 28.4296875 C4.25597656 28.92855469 3.79320312 29.42742187 3.31640625 29.94140625 C-7.83652387 40.76711104 -22.76169217 40.88071205 -37.28125 40.7109375 C-47.92797687 40.38029381 -58.39976506 37.38856039 -66.0625 29.625 C-70.89264739 24.1341249 -71.64265342 20.77779416 -71.5546875 13.40625 C-71.18229624 9.35250519 -70.04259708 7.40344589 -67.28125 4.4296875 C-66.81847656 3.93082031 -66.35570312 3.43195313 -65.87890625 2.91796875 C-50.08339816 -12.41410145 -17.52020132 -11.95234073 0 0 Z M-52.28125 13.4296875 C-53.57370384 15.46959901 -53.57370384 15.46959901 -54.28125 17.4296875 C-53.0128125 18.3578125 -53.0128125 18.3578125 -51.71875 19.3046875 C-51.24308594 19.65273438 -50.76742188 20.00078125 -50.27734375 20.359375 C-44.30505465 23.56173746 -38.1393865 23.8171958 -31.53125 23.8046875 C-30.65033691 23.80307617 -29.76942383 23.80146484 -28.86181641 23.79980469 C-22.33291529 23.67713976 -15.86390495 23.15145747 -10.28125 19.4296875 C-8.98879616 17.38977599 -8.98879616 17.38977599 -8.28125 15.4296875 C-9.126875 14.8109375 -9.9725 14.1921875 -10.84375 13.5546875 C-11.31941406 13.20664062 -11.79507813 12.85859375 -12.28515625 12.5 C-18.25744535 9.29763754 -24.4231135 9.0421792 -31.03125 9.0546875 C-32.35261963 9.05710449 -32.35261963 9.05710449 -33.70068359 9.05957031 C-40.22958471 9.18223524 -46.69859505 9.70791753 -52.28125 13.4296875 Z " fill="#ffffff" transform="translate(431.28125,247.5703125)"/>
<path d="M0 0 C8.34468007 4.97590182 13.53387008 11.86345977 16.109375 21.2578125 C17.10789012 32.35758522 16.45884702 41.9922991 9.359375 51.0703125 C3.70168013 57.1280464 -3.34488592 60.84888618 -11.625 61.59375 C-22.24007794 61.83258597 -31.18444828 60.63001931 -39.2890625 53.1015625 C-47.32833275 43.84659773 -48.61982016 35.03008751 -48.06982422 23.20654297 C-47.37894187 15.69343275 -43.42276801 9.23166585 -37.890625 4.2578125 C-27.15195714 -3.81766573 -12.32399863 -5.91386512 0 0 Z M-29.265625 20.8828125 C-31.46970393 25.46051489 -31.6877889 29.26333661 -30.890625 34.2578125 C-28.56093569 39.09639798 -25.72921048 41.92812319 -20.890625 44.2578125 C-15.89614911 45.0549764 -12.09332739 44.83689143 -7.515625 42.6328125 C-3.93154787 39.39007605 -1.29527259 36.79305354 -0.5078125 31.859375 C-0.25178581 26.17558256 -0.95435568 22.60842595 -4.890625 18.2578125 C-9.24123845 14.32154318 -12.80839506 13.61897331 -18.4921875 13.875 C-23.42586604 14.66246009 -26.02288855 17.29873537 -29.265625 20.8828125 Z " fill="#ffffff" transform="translate(287.890625,402.7421875)"/>
</svg>
